<?xml version="1.0" encoding="UTF-8" standalone="no"?>
<!-- Created with Inkscape (http://www.inkscape.org/) -->

<svg
   xmlns:dc="http://purl.org/dc/elements/1.1/"
   xmlns:cc="http://creativecommons.org/ns#"
   xmlns:rdf="http://www.w3.org/1999/02/22-rdf-syntax-ns#"
   xmlns:svg="http://www.w3.org/2000/svg"
   xmlns="http://www.w3.org/2000/svg"
   xmlns:sodipodi="http://sodipodi.sourceforge.net/DTD/sodipodi-0.dtd"
   xmlns:inkscape="http://www.inkscape.org/namespaces/inkscape"
   width="300"
   height="400"
   class="spaceMonkey"
   id="svg5871"
   version="1.1"
   inkscape:version="0.91 r13725"
   sodipodi:docname="spacemonkey-xs.svg">
  <defs
     id="defs5873">
    <inkscape:perspective
       sodipodi:type="inkscape:persp3d"
       inkscape:vp_x="-223.44574 : 447.63961 : 1"
       inkscape:vp_y="0 : 1000 : 0"
       inkscape:vp_z="800.55426 : 447.63961 : 1"
       inkscape:persp3d-origin="288.55426 : 319.63961 : 1"
       id="perspective6730" />
  </defs>
  <sodipodi:namedview
     id="base"
     pagecolor="#ffffff"
     bordercolor="#666666"
     borderopacity="1.0"
     inkscape:pageopacity="0.0"
     inkscape:pageshadow="2"
     inkscape:zoom="1"
     inkscape:cx="232.95928"
     inkscape:cy="203.83101"
     inkscape:current-layer="layer10"
     inkscape:document-units="px"
     showgrid="false"
     inkscape:snap-bbox="true"
     inkscape:object-paths="false"
     inkscape:snap-bbox-midpoints="false"
     inkscape:snap-bbox-edge-midpoints="false"
     inkscape:bbox-nodes="true"
     inkscape:snap-nodes="false"
     inkscape:window-width="1197"
     inkscape:window-height="630"
     inkscape:window-x="133"
     inkscape:window-y="23"
     inkscape:window-maximized="0"
     inkscape:snap-global="false" />
  <metadata
     id="metadata5876">
    <rdf:RDF>
      <cc:Work
         rdf:about="">
        <dc:format>image/svg+xml</dc:format>
        <dc:type
           rdf:resource="http://purl.org/dc/dcmitype/StillImage" />
        <dc:title></dc:title>
      </cc:Work>
    </rdf:RDF>
  </metadata>
  <g
     inkscape:groupmode="layer"
     id="layer20"
     inkscape:label="Layer#4"
     transform="translate(0,-368)">
    <rect
       style="fill:#d8dada;fill-opacity:1;fill-rule:evenodd;stroke:#000000;stroke-width:6.54661894;stroke-linecap:round;stroke-linejoin:bevel;stroke-miterlimit:4;stroke-dasharray:none;stroke-opacity:1"
       id="rect10283"
       width="143.03517"
       height="177.90775"
       x="79.607056"
       y="518.20361"
       rx="35.757149"
       ry="58.116524" />
  </g>
  <g
     inkscape:groupmode="layer"
     id="layer19"
     inkscape:label="Layer#3"
     transform="translate(0,-368)">
    <ellipse
       style="fill:#d8dada;fill-opacity:1;fill-rule:nonzero;stroke:#000000;stroke-width:6.54661894;stroke-linecap:square;stroke-linejoin:round;stroke-miterlimit:4;stroke-dasharray:none;stroke-opacity:0.98222219"
       id="path6558"
       cx="151.12724"
       cy="600.47296"
       rx="62.310257"
       ry="79.777412" />
    <rect
       ry="58.116524"
       rx="4.8916659"
       y="566.76392"
       x="111.08835"
       height="120.97725"
       width="83.56263"
       id="rect10285"
       style="fill:#d6e9f6;fill-opacity:1;fill-rule:evenodd;stroke:#000000;stroke-width:2.72775793;stroke-linecap:round;stroke-linejoin:bevel;stroke-miterlimit:4;stroke-dasharray:none;stroke-opacity:1" />
  </g>
  <g
     inkscape:groupmode="layer"
     id="layer9"
     inkscape:label="Layer#1"
     transform="translate(0,-368)">
    <ellipse
       id="path10273"
       style="fill:#8d521d;fill-opacity:1;stroke:#000000;stroke-width:6.54661894;stroke-linecap:square;stroke-linejoin:round;stroke-miterlimit:4;stroke-dasharray:none;stroke-opacity:1"
       cx="204.60046"
       cy="486.89572"
       rx="23.7239"
       ry="21.114046" />
  </g>
  <g
     inkscape:groupmode="layer"
     id="layer8"
     inkscape:label="Layer"
     transform="translate(0,-368)">
    <ellipse
       style="fill:#8d521d;fill-opacity:1;stroke:#000000;stroke-width:5.41023493;stroke-linecap:square;stroke-linejoin:round;stroke-miterlimit:4;stroke-dasharray:none;stroke-opacity:1"
       id="path5881"
       cx="89.097626"
       cy="489.26779"
       rx="23.7239"
       ry="21.114046" />
    <ellipse
       style="fill:#001d3e;fill-opacity:1;fill-rule:evenodd;stroke:#000000;stroke-width:5.41023493;stroke-linecap:square;stroke-linejoin:round;stroke-miterlimit:4;stroke-dasharray:none;stroke-opacity:0.98222219"
       id="path6439"
       cx="134.17302"
       cy="476.17712"
       rx="16.175386"
       ry="12.246147" />
    <path
       style="fill:#001d3e;fill-opacity:1;fill-rule:evenodd;stroke:#000000;stroke-width:5.41023493;stroke-linecap:square;stroke-linejoin:round;stroke-miterlimit:4;stroke-dasharray:none;stroke-opacity:0.98222219"
       id="path6456"
       d="m 116.87803,478.18826 c 0.14199,-2.4242 0.20404,-4.85227 0.31754,-7.27879 0.17225,-1.92523 -0.006,-3.89451 0.38716,-5.79947 0.24731,-1.19859 0.40708,-1.44877 0.86538,-2.59828 1.10563,-2.48181 2.93629,-4.54391 4.87888,-6.43394 2.50803,-2.1418 5.44234,-3.50541 8.43701,-5.00565 1.03883,-0.52041 3.2689,-0.85546 4.44104,-1.0629 3.67088,-0.62516 6.04847,0.17332 9.30341,1.73669 2.85165,1.80053 4.36723,4.7999 5.79158,7.70336 1.26013,3.01759 1.87812,6.21101 1.93747,9.45959 0.023,2.46091 -0.32434,4.85381 -1.40405,7.08475 -2.05027,3.25867 -5.75267,4.59354 -9.04892,6.45439 -2.03066,0.81597 -4.29719,0.8292 -6.46241,0.93463 -1.87926,0.01 -3.76646,0.18571 -5.64121,0.0175 -1.97394,-0.38153 -3.93573,-0.85612 -5.88371,-1.35331 -1.762,-0.60398 -3.19736,-1.66695 -4.56683,-2.87224 -1.44377,-1.42009 -1.67692,-3.43041 -2.06485,-5.30344 -0.20271,-0.97162 -0.36722,-1.94888 -0.51185,-2.93004 0,0 5.45635,-2.80957 5.45635,-2.80957 l 0,0 c 0.11615,0.97713 0.23645,1.95439 0.43899,2.919 0.36461,1.73369 0.62698,3.61033 1.94559,4.92736 1.30071,1.13983 2.68613,2.14848 4.38398,2.64914 1.9218,0.51364 3.86479,1.02499 5.8489,1.23408 1.83253,0.0764 3.67006,0.0585 5.50263,-0.007 2.16684,-0.11499 4.41982,-0.20275 6.37908,-1.21585 -9.51312,5.44077 -4.68006,2.8803 -3.22035,1.75317 0.70416,-0.54373 1.31854,-1.21395 1.83383,-1.92848 1.35641,-2.24043 1.58599,-4.33211 1.70058,-6.89936 0.004,-0.49682 0.0375,-0.99422 0.0129,-1.49047 -0.13221,-2.65544 -0.79914,-5.29355 -1.80224,-7.75316 -1.38025,-2.79298 -2.78559,-5.69368 -5.59508,-7.36791 -1.1531,-0.55759 -1.70738,-0.88588 -2.96579,-1.24042 -2.00487,-0.56485 -4.09254,-0.55309 -6.12898,-0.17845 -1.22925,0.24447 -1.78835,0.32071 -2.98662,0.69971 -0.47815,0.15123 -1.81643,0.80811 -1.41243,0.51561 1.24154,-0.89897 2.63237,-1.58146 3.95718,-2.35817 0.36373,-0.21325 -0.72648,0.4293 -1.0736,0.66759 -0.35135,0.24118 -0.67976,0.51289 -1.01964,0.76934 -1.97867,1.80429 -3.79688,3.82694 -5.00228,6.21682 -0.1775,0.41185 -0.38115,0.81382 -0.53252,1.23556 -0.81051,2.25836 -0.76803,4.65702 -0.87803,7.01482 -0.0989,2.35049 -0.13868,4.70992 0.0719,7.05616 0,0 -5.69,2.83829 -5.69,2.83829 z"
       inkscape:connector-curvature="0" />
    <path
       style="fill:#001d3e;fill-opacity:1;fill-rule:evenodd;stroke:#000000;stroke-width:5.41023493;stroke-linecap:square;stroke-linejoin:round;stroke-miterlimit:4;stroke-dasharray:none;stroke-opacity:0.98222219"
       id="path6458"
       d="m 122.01099,495.60515 c -0.64597,-2.85851 -1.43277,-5.68459 -2.05648,-8.54754 -0.7478,-4.20188 -0.95972,-8.4764 -0.97299,-12.73483 0.21769,-2.7363 0.20422,-6.74761 2.04522,-9.01908 0.32204,-0.39733 0.75593,-0.69385 1.13389,-1.04078 2.18055,-1.21834 4.31253,-2.52408 6.54166,-3.65504 0.51191,-0.25972 1.0942,-0.35902 1.65195,-0.50206 2.35009,-0.60272 4.6591,-0.58494 7.06234,-0.43212 2.86395,0.21572 5.7145,0.72711 8.31079,1.9582 2.21134,1.22584 3.09016,3.5658 3.87645,5.79771 1.15498,3.56064 1.73029,7.26802 2.70395,10.87855 0.44501,1.54591 0.23848,0.79756 0.62293,2.24415 0,0 -5.37932,2.83612 -5.37932,2.83612 l 0,0 c -0.30758,-1.47882 -0.14292,-0.70989 -0.49633,-2.30633 -0.79519,-3.62588 -1.26085,-7.35093 -2.66404,-10.82069 -0.83176,-2.06316 -1.70237,-4.20505 -3.79436,-5.32269 -2.47465,-1.23602 -5.21417,-1.70381 -7.97028,-1.89854 -2.36299,-0.11344 -4.64998,-0.0735 -6.93458,0.61638 -0.54953,0.16596 -2.06537,0.94057 -1.61764,0.58723 1.10258,-0.87008 2.41605,-1.44707 3.62407,-2.17061 -0.4024,0.29293 -0.85679,0.52763 -1.20721,0.8788 -2.02658,2.03083 -2.20934,6.17215 -2.39391,8.81807 4e-5,4.20598 0.19256,8.43476 1.02161,12.57182 0.64657,2.779 1.32546,5.58697 2.4622,8.21824 0,0 -5.56992,3.04504 -5.56992,3.04504 z"
       inkscape:connector-curvature="0" />
    <path
       style="fill:#001d3e;fill-opacity:1;fill-rule:evenodd;stroke:#000000;stroke-width:5.41023493;stroke-linecap:square;stroke-linejoin:round;stroke-miterlimit:4;stroke-dasharray:none;stroke-opacity:0.98222219"
       id="path6460"
       d="m 118.6034,487.05615 c -0.10457,-2.51602 -0.79361,-4.97505 -0.57384,-7.5094 0.0776,-0.89454 0.286,-1.77356 0.429,-2.66035 1.16219,-4.43096 3.37339,-8.64667 7.05169,-11.57929 0.54573,-0.43509 1.16191,-0.77784 1.74288,-1.16677 1.16805,-0.58207 5.5855,-4.08605 8.44204,-3.33288 1.97824,0.52159 3.33873,2.53183 4.14581,4.20805 0.3777,0.78443 0.6283,1.62168 0.94244,2.43253 1.09533,3.78675 1.55868,7.82842 0.49613,11.68675 -0.59112,2.14648 -1.11592,2.74948 -2.23138,4.61459 -0.51229,0.58826 -0.97773,1.21892 -1.53685,1.76475 -0.49676,0.48496 -1.01957,0.95968 -1.61912,1.31627 -2.61436,1.55492 -5.44418,3.64191 -8.63057,4.15165 -1.3749,0.21994 -2.1775,0.0906 -3.54324,-7.5e-4 -1.97435,-0.40648 -4.39501,-0.87634 -5.63557,-2.62928 -0.17743,-0.25072 -0.28461,-0.54268 -0.42691,-0.81402 -0.37564,-1.06026 -0.36997,-2.15429 -0.22114,-3.24928 0,0 5.61879,-2.67643 5.61879,-2.67643 l 0,0 c -0.24359,0.97448 -0.33748,1.95574 -0.0139,2.93069 0.10738,0.22822 0.18074,0.47496 0.32212,0.68467 1.09788,1.62845 3.37218,2.03083 5.16152,2.37495 1.37742,0.0535 2.00934,0.15831 3.3852,-0.11936 0.59391,-0.11985 2.15491,-0.94938 1.74142,-0.51512 -0.84314,0.88549 -2.02416,1.4039 -3.12061,1.96355 -1.33176,0.67976 5.31169,-3.37837 3.35257,-2.94696 1.17711,-1.78427 1.75204,-2.39969 2.4172,-4.48097 1.19909,-3.75178 0.80101,-7.69113 -0.42448,-11.37204 -0.85061,-1.97982 -1.62214,-4.0528 -3.55293,-5.2987 -0.43339,-0.27964 -0.92182,-0.50653 -1.43243,-0.59782 -0.49972,-0.0893 -1.8382,0.45909 -1.52229,0.0697 0.82297,-1.01458 2.17495,-1.47661 3.26242,-2.21492 -0.62114,0.37194 -1.27838,0.69146 -1.8634,1.11584 -3.7944,2.75249 -6.14508,6.84467 -7.28357,11.26632 -0.12102,0.84212 -0.31139,1.67746 -0.36308,2.5264 -0.14944,2.45432 0.55109,4.87137 1.17404,7.21982 0,0 -5.68999,2.83829 -5.68999,2.83829 z"
       inkscape:connector-curvature="0" />
    <path
       style="fill:#001d3e;fill-opacity:1;fill-rule:evenodd;stroke:#000000;stroke-width:5.41023493;stroke-linecap:square;stroke-linejoin:round;stroke-miterlimit:4;stroke-dasharray:none;stroke-opacity:0.98222219"
       id="path6462"
       d="m 128.10046,476.86716 c 0.16553,-1.74709 0.25546,-3.50392 0.59505,-5.23055 0.24956,-1.26891 0.45658,-1.87689 0.81708,-3.1124 0.62467,-1.87509 0.28751,-0.95275 1.00948,-2.76763 0,0 5.43607,-2.45976 5.43607,-2.45976 l 0,0 c -0.76043,1.78846 -0.40149,0.87702 -1.07419,2.7353 -0.80731,2.59795 -1.47482,5.26612 -1.10849,8.00424 0,0 -5.675,2.8308 -5.675,2.8308 z"
       inkscape:connector-curvature="0" />
    <path
       style="fill:#001d3e;fill-opacity:1;fill-rule:evenodd;stroke:#000000;stroke-width:5.41023493;stroke-linecap:square;stroke-linejoin:round;stroke-miterlimit:4;stroke-dasharray:none;stroke-opacity:0.98222219"
       id="path6464"
       d="m 144.54225,463.66456 c -0.12519,0.26763 -0.21751,0.55251 -0.37558,0.80293 -0.72057,1.14157 -1.69057,2.13698 -2.66098,3.06766 -3.02092,2.89725 -6.48431,5.18887 -9.92053,7.57888 -3.46513,2.45682 -7.12538,4.65985 -10.48913,7.255 -1.60658,1.23948 -3.25628,2.61689 -4.48548,4.24185 -0.5955,0.78724 -1.03193,1.67865 -1.5479,2.51798 -1.71413,3.68241 -2.43162,7.69565 -1.67461,11.70763 0.50131,2.65676 0.93808,3.19019 2.08206,5.65864 0.69688,0.98024 1.29754,2.03325 2.09062,2.94071 3.76347,4.30616 9.88554,7.81346 15.12191,10.09288 1.41666,0.61667 2.88118,1.12209 4.32177,1.68315 5.39727,1.77013 10.96449,3.21095 16.66218,3.61999 1.15303,0.0828 2.31177,0.14038 3.46697,0.0956 1.02155,-0.0397 2.03093,-0.23196 3.04638,-0.34796 -1.61453,1.3971 6.18379,-2.35691 4.63576,-1.77296 -1.10435,0.41657 -2.03009,1.64995 -3.20347,1.4988 -0.75448,-0.0972 1.05705,-1.0878 1.45237,-1.7244 1.29552,-2.08619 1.48573,-3.62275 2.12747,-6.01994 0.22322,-1.4118 0.50923,-2.81546 0.66967,-4.23542 0.29056,-2.57138 0.4579,-6.87043 0.45083,-9.43809 -0.007,-2.56968 -0.17119,-6.16147 -0.53528,-8.73336 -0.18773,-1.32595 -0.508,-2.63062 -0.76199,-3.94593 -1.30891,-4.5926 -3.39843,-9.01674 -6.62411,-12.63495 -1.44426,-1.62003 -2.15432,-2.05554 -3.80647,-3.32608 -1.91019,-1.20833 -4.01554,-2.1538 -6.34777,-1.84741 -1.01954,0.13394 -1.83036,0.49529 -2.77933,0.84766 -3.77722,2.09418 2.27166,-1.2653 2.74985,-1.46848 0.40674,-0.17282 -0.68033,0.56015 -0.98275,0.8776 -0.85103,0.89333 -1.30716,1.89998 -1.7427,3.02181 -0.69863,2.49037 0.35977,4.94142 1.10495,7.30143 0.17281,0.47884 0.34072,0.95941 0.51846,1.43653 0.4392,1.17898 0.59226,1.61227 1.15539,2.71896 0.53705,1.05542 1.13731,2.05222 1.62653,3.13195 0.83241,2.12479 0.92133,4.40725 1.0064,6.65341 -0.009,1.55593 0.24056,3.25544 -0.35722,4.74936 -0.0896,0.22387 -0.22787,0.42598 -0.34182,0.63896 -0.3529,0.55429 -0.85094,0.95779 -1.36394,1.35862 0,0 -5.82827,2.26499 -5.82827,2.26499 l 0,0 c 0.52375,-0.35124 1.0688,-0.67867 1.47893,-1.16429 0.13866,-0.17289 0.30133,-0.32966 0.41598,-0.51866 0.79911,-1.31749 0.54682,-3.15056 0.58318,-4.6062 -0.0677,-2.17271 -0.16135,-4.38009 -0.92105,-6.44652 -1.04765,-2.47623 -2.43515,-4.81155 -3.21024,-7.40046 -0.65393,-1.92088 -1.74123,-4.4555 -1.59024,-6.49746 0.0274,-0.37171 0.13749,-0.73311 0.20623,-1.09967 0.31382,-0.90191 0.43737,-1.40174 0.93727,-2.23724 1.97572,-3.30211 5.9278,-4.66102 9.28668,-6.32304 1.08312,-0.33635 1.73029,-0.6089 2.88704,-0.67199 2.39741,-0.13078 4.4909,0.95438 6.35454,2.31835 1.52507,1.35972 2.28493,1.93889 3.62033,3.58624 3.0873,3.80852 5.18646,8.31134 6.48459,12.98005 0.24146,1.34032 0.55481,2.67011 0.7244,4.02095 0.33513,2.66946 0.39353,6.19124 0.39896,8.85657 0.005,2.50268 -0.0782,6.8858 -0.26226,9.4057 -0.102,1.3969 -0.29502,2.78598 -0.44254,4.17899 -0.4295,2.2485 -0.56709,4.02177 -1.63298,6.05733 -1.62232,3.09817 -4.93055,4.17387 -7.96369,5.92149 -0.66634,0.38394 -1.37608,0.70524 -2.11024,0.94274 -0.80152,0.25932 -1.64782,0.35973 -2.47173,0.5396 -0.99572,0.0711 -1.98877,0.21288 -2.98715,0.21342 -2.11273,7.5e-4 -5.13058,-0.38348 -7.16676,-0.73578 -4.33409,-0.74989 -8.58539,-1.91467 -12.73409,-3.34376 -1.43241,-0.58059 -2.88663,-1.11215 -4.29728,-1.74178 -3.12409,-1.39438 -5.60564,-2.71677 -8.48121,-4.55602 -2.53449,-1.62107 -5.00481,-3.36678 -7.0734,-5.55489 -0.85594,-0.9054 -1.52507,-1.96428 -2.2876,-2.94642 -1.24633,-2.56384 -1.67256,-3.0083 -2.21451,-5.78779 -0.79582,-4.08159 -0.10225,-8.21531 1.52178,-12.01283 0.5024,-0.87295 0.9128,-1.80316 1.50725,-2.61879 1.25247,-1.71852 2.99152,-3.15655 4.6741,-4.43707 3.4526,-2.62753 7.22355,-4.82823 10.74612,-7.35994 3.27839,-2.2999 6.44959,-4.36515 9.27811,-7.20355 0.71825,-0.72077 1.67364,-1.78446 2.25381,-2.69677 0.11917,-0.18737 0.18855,-0.401 0.28282,-0.60148 0,0 5.74461,-2.72707 5.74461,-2.72707 z"
       inkscape:connector-curvature="0" />
    <path
       style="fill:#001d3e;fill-opacity:1;fill-rule:evenodd;stroke:#000000;stroke-width:5.41023493;stroke-linecap:square;stroke-linejoin:round;stroke-miterlimit:4;stroke-dasharray:none;stroke-opacity:0.98222219"
       id="path6468"
       d="m 116.07222,489.3924 c 0.90749,-3.97754 1.26254,-8.04878 1.55917,-12.10567 0.24975,-3.9869 0.2599,-7.98727 0.55259,-11.97144 0.18883,-1.73 0.93514,-3.15303 2.49284,-4.05522 2.06627,-1.19675 4.16626,-2.3368 6.24941,-3.50519 1.67855,-0.72697 3.47314,-1.3125 5.31696,-1.45298 1.19335,-0.0909 1.85014,0.0326 3.02869,0.15764 3.79453,0.495 5.38999,2.10212 7.93876,4.68176 2.46665,2.4052 3.70405,5.5758 4.88594,8.70718 0.89302,2.39817 1.2837,4.91188 1.48383,7.44391 0.17184,2.2281 -0.36182,4.42068 -0.85725,6.5783 -0.22145,0.95591 -0.39579,1.92111 -0.55997,2.88771 0,0 -5.66137,2.69441 -5.66137,2.69441 l 0,0 c 0.21675,-1.00263 0.49747,-1.99045 0.7228,-2.99137 0.50792,-2.1013 1.05253,-4.23724 0.91744,-6.41423 -0.12199,-2.50239 -0.41768,-4.99654 -1.23883,-7.38433 -1.08823,-3.08464 -2.36129,-6.12996 -4.72913,-8.50869 -2.48387,-2.47514 -4.14187,-3.86839 -7.77841,-4.29315 -1.20003,-0.0893 -1.7153,-0.18586 -2.92145,-0.0407 -1.84874,0.22258 -3.63264,0.86592 -5.28955,1.67334 10.01667,-5.76241 3.50294,-2.24266 2.62552,-1.35102 -0.69299,0.70422 -1.0206,1.60666 -1.22066,2.54505 -0.56129,4.03688 -0.73923,8.11116 -1.01245,12.17327 -0.25926,3.92925 -0.47753,7.86208 -0.82546,11.7849 0,0 -5.67942,2.74646 -5.67942,2.74646 z"
       inkscape:connector-curvature="0" />
    <path
       style="fill:#001d3e;fill-opacity:1;fill-rule:evenodd;stroke:#000000;stroke-width:5.41023493;stroke-linecap:square;stroke-linejoin:round;stroke-miterlimit:4;stroke-dasharray:none;stroke-opacity:0.98222219"
       id="path6470"
       d="m 119.81254,490.77449 c -0.052,-0.65779 -0.22572,-2.94369 -0.29318,-3.23891 -0.31086,-1.36024 -1.68292,-4.76787 -2.13218,-5.94203 -1.64344,-4.29526 -0.9397,-2.22503 -2.24034,-6.6663 -0.81394,-3.65481 -1.41761,-7.4669 -0.2216,-11.11274 0.53431,-1.62874 0.88953,-1.99445 1.78987,-3.39033 0.34305,-0.40768 0.65661,-0.841 1.02918,-1.22305 1.88544,-1.93344 6.19842,-3.81776 7.67448,-4.29862 0.58706,-0.19126 1.17737,0.39236 1.71945,0.68437 1.33252,0.7178 2.73088,1.95593 3.87431,2.88417 3.07984,2.89619 6.38344,5.93997 8.63479,9.53615 0.37992,0.60687 0.68031,1.25818 1.02047,1.88725 1.97959,4.01424 1.98919,8.45877 1.80227,12.81183 -0.10622,1.82966 -0.27878,3.65449 -0.4404,5.47994 0.0512,0.72078 -0.33288,1.35111 -0.39151,2.06113 -0.0175,0.21151 0.0107,0.42429 0.016,0.63642 0.29017,0.73638 0.97159,1.93132 1.94286,1.92069 0.14435,-7.5e-4 0.27407,-0.0889 0.41112,-0.13329 2.53631,-1.381 0.18949,1.08453 -3.4347,1.57316 -0.67395,0.0909 0.83912,-1.04963 1.22435,-1.59858 1.01133,-1.44109 1.44191,-2.27595 2.31267,-3.79878 1.44932,-2.73509 2.85938,-5.48851 4.11117,-8.3158 0.6363,-1.57031 1.13909,-3.1905 1.66508,-4.79912 1.23941,-3.50622 3.07663,-3.23109 7.22805,-5.48008 3.04763,0.46372 5.71814,2.2478 8.17417,3.96747 0.10595,1.33982 0.3244,2.67567 0.31787,4.01948 -0.009,1.75951 -0.65922,7.65394 -0.84823,9.41827 -0.3882,3.62392 -0.77989,7.23759 -1.06164,10.87101 -0.18574,3.20231 -0.18046,6.40651 -0.80644,9.5639 -0.22149,1.01513 -0.11572,0.52728 -0.31758,1.46349 0,0 -5.61877,2.64818 -5.61877,2.64818 l 0,0 c 0.2446,-0.9683 0.11054,-0.46712 0.40557,-1.50268 0.84594,-3.21365 1.07193,-6.51148 1.45549,-9.80039 0.50292,-3.70196 1.09814,-7.39579 1.54476,-11.10464 0.32509,-2.69978 0.76243,-6.43875 0.61137,-9.17839 -0.0624,-1.13146 -0.37119,-2.23688 -0.55679,-3.35531 -2.04363,-1.34611 -5.05351,-3.27181 -7.62151,-3.31221 -0.22134,-0.004 -0.43659,0.072 -0.65489,0.10795 1.66327,-0.95639 3.33589,-1.89741 4.98982,-2.86921 0.12326,-0.0724 -0.27069,0.0988 -0.39502,0.16943 -0.65292,0.37119 -0.90615,1.16305 -1.22399,1.78697 -0.5681,1.63408 -1.06399,3.29459 -1.71815,4.897 -1.41659,2.87119 -2.91998,5.69602 -4.44785,8.51244 -0.8843,1.5871 -1.24342,2.27856 -2.202,3.81475 -0.33114,0.53067 -0.53485,1.17906 -1.02833,1.57061 -1.92172,1.52483 -4.05858,2.77061 -6.12344,4.10407 -0.28804,0.18601 -0.74679,0.22733 -1.07181,0.28079 -0.18541,-0.0308 -0.37821,-0.0331 -0.55619,-0.0926 -1.11565,-0.37256 -1.84711,-1.54987 -2.25544,-2.54949 -0.0624,-0.94763 0.0679,-1.82973 0.23786,-2.74877 0.31869,-1.88682 0.77562,-3.75385 0.91486,-5.6685 0.36722,-4.28265 0.35452,-8.6035 -1.59756,-12.56562 -0.3295,-0.61167 -0.63146,-1.23835 -0.98853,-1.835 -2.17107,-3.62769 -5.15858,-6.75065 -8.40778,-9.46673 -1.28607,-0.92522 -2.52408,-1.95033 -4.01918,-2.55824 -0.4806,-0.19542 -1.83281,0.0495 -1.5182,-0.3563 0.87897,-1.13379 2.40163,-1.60589 3.62985,-2.36755 0.86137,-0.53416 -3.66807,2.43997 -2.26763,2.00995 -0.98068,1.32977 -1.37944,1.70408 -2.01407,3.28504 -1.42828,3.55805 -1.04309,7.37423 -0.27614,11.03261 1.0423,3.54807 0.83299,3.18474 2.24511,6.60228 0.43472,1.05207 0.91225,2.0867 1.37419,3.1276 0.4027,0.90743 0.89573,1.78015 1.21972,2.71729 0.384,1.11076 0.26894,2.35793 0.8861,3.40929 0,0 -5.71178,2.47426 -5.71178,2.47426 z"
       inkscape:connector-curvature="0" />
    <ellipse
       style="fill:#000000;fill-opacity:1;fill-rule:evenodd;stroke:#000000;stroke-width:5.41023493;stroke-linecap:square;stroke-linejoin:round;stroke-miterlimit:4;stroke-dasharray:none;stroke-opacity:0.98222219"
       id="path6494"
       cx="139.34915"
       cy="481.66675"
       rx="17.038074"
       ry="14.779833" />
    <rect
       style="fill:#bbbbbb;fill-opacity:1;fill-rule:nonzero;stroke:#000000;stroke-width:5.45551586;stroke-linecap:round;stroke-linejoin:round;stroke-miterlimit:4;stroke-dasharray:none;stroke-opacity:1"
       id="rect6662"
       width="168.33214"
       height="102.34545"
       x="63.865318"
       y="593.24042"
       ry="24.041735"
       rx="10.646438"
       inkscape:export-xdpi="90"
       inkscape:export-ydpi="90" />
    <path
       sodipodi:type="arc"
       style="fill:#dab89a;fill-opacity:1;fill-rule:evenodd;stroke:#000000;stroke-width:2.72775793;stroke-linecap:round;stroke-linejoin:bevel;stroke-miterlimit:4;stroke-dasharray:none;stroke-opacity:1"
       id="path10247"
       sodipodi:cx="207.70004"
       sodipodi:cy="488.43002"
       sodipodi:rx="10.764318"
       sodipodi:ry="10.87214"
       d="m 217.41958,493.10249 a 10.764318,10.87214 0 0 1 -14.30623,5.16329 10.764318,10.87214 0 0 1 -5.17003,-14.42848 10.764318,10.87214 0 0 1 14.26432,-5.28027 10.764318,10.87214 0 0 1 5.28567,14.38568"
       sodipodi:start="0.44423257"
       sodipodi:end="0.42801829"
       sodipodi:open="true" />
    <path
       sodipodi:open="true"
       sodipodi:end="0.42801829"
       sodipodi:start="0.44423257"
       d="m 97.326689,494.36045 a 10.764318,10.87214 0 0 1 -14.306233,5.1633 10.764318,10.87214 0 0 1 -5.170035,-14.42849 10.764318,10.87214 0 0 1 14.264319,-5.28026 10.764318,10.87214 0 0 1 5.285677,14.38567"
       sodipodi:ry="10.87214"
       sodipodi:rx="10.764318"
       sodipodi:cy="489.68799"
       sodipodi:cx="87.607147"
       id="path10249"
       style="fill:#dab89a;fill-opacity:1;fill-rule:evenodd;stroke:#000000;stroke-width:2.72775793;stroke-linecap:round;stroke-linejoin:bevel;stroke-miterlimit:4;stroke-dasharray:none;stroke-opacity:1"
       sodipodi:type="arc" />
    <path
       sodipodi:type="star"
       style="fill:#ffffff;fill-opacity:1;stroke:#000000;stroke-width:24.75640488;stroke-linecap:square;stroke-linejoin:round;stroke-miterlimit:4;stroke-dasharray:none;stroke-opacity:1"
       id="path5444"
       sodipodi:sides="5"
       sodipodi:cx="499.39417"
       sodipodi:cy="546.6756"
       sodipodi:r1="45.086723"
       sodipodi:r2="22.543362"
       sodipodi:arg1="0.90768989"
       sodipodi:arg2="1.5360084"
       inkscape:flatsided="false"
       inkscape:rounded="0"
       inkscape:randomized="0"
       d="m 527.14811,582.20772 -26.96987,-13.0024 -26.00069,14.84587 4.03187,-29.66782 -22.15392,-20.1405 29.46169,-5.33333 12.30882,-27.29339 14.17646,26.37165 29.76119,3.27226 -20.70016,21.6319 z"
       inkscape:transform-center-x="0.10499103"
       inkscape:transform-center-y="-0.86108372"
       transform="matrix(0.2166707,0,0,0.2241281,43.592392,518.05858)" />
  </g>
  <g
     id="layer1"
     inkscape:label="Layer 1"
     inkscape:groupmode="layer"
     transform="translate(0,-368)">
    <ellipse
       style="fill:#8d521d;fill-opacity:1;stroke:#000000;stroke-width:6.54661894;stroke-linecap:square;stroke-linejoin:round;stroke-miterlimit:4;stroke-dasharray:none;stroke-opacity:0.98222219"
       id="path5879"
       cx="147.76038"
       cy="488.21213"
       rx="62.113491"
       ry="59.752747" />
    <ellipse
       style="fill:#9e9e9e;fill-opacity:1;fill-rule:evenodd;stroke:#000000;stroke-width:5.45551586;stroke-linecap:round;stroke-linejoin:round;stroke-miterlimit:4;stroke-dasharray:none;stroke-opacity:1"
       id="path6850"
       cx="68.666718"
       cy="686.10358"
       rx="30.347719"
       ry="47.573116" />
    <ellipse
       id="path10288"
       style="fill:#9e9e9e;fill-opacity:1;fill-rule:evenodd;stroke:#000000;stroke-width:5.45551586;stroke-linecap:round;stroke-linejoin:round;stroke-miterlimit:4;stroke-dasharray:none;stroke-opacity:1"
       cx="231.55743"
       cy="684.91754"
       rx="30.347719"
       ry="47.573116" />
    <path
       sodipodi:type="arc"
       style="fill:#6096b2;fill-opacity:0.36725667;fill-rule:evenodd;stroke:#000000;stroke-width:4.90996456;stroke-linecap:round;stroke-linejoin:bevel;stroke-miterlimit:4;stroke-dasharray:none;stroke-opacity:1"
       id="path10317"
       sodipodi:cx="132.24521"
       sodipodi:cy="585.74078"
       sodipodi:rx="7.339963"
       sodipodi:ry="7.5116601"
       d="m 138.87276,588.96903 a 7.339963,7.5116601 0 0 1 -9.75512,3.56737 7.339963,7.5116601 0 0 1 -3.52534,-9.96877 7.339963,7.5116601 0 0 1 9.72654,-3.64819 7.339963,7.5116601 0 0 1 3.60419,9.9392"
       sodipodi:start="0.44423257"
       sodipodi:end="0.42801829"
       sodipodi:open="true" />
    <path
       sodipodi:open="true"
       sodipodi:end="0.42801829"
       sodipodi:start="0.44423257"
       d="m 183.10074,588.77134 a 7.339963,7.5116601 0 0 1 -9.75512,3.56736 7.339963,7.5116601 0 0 1 -3.52534,-9.96877 7.339963,7.5116601 0 0 1 9.72654,-3.64818 7.339963,7.5116601 0 0 1 3.6042,9.9392"
       sodipodi:ry="7.5116601"
       sodipodi:rx="7.339963"
       sodipodi:cy="585.54309"
       sodipodi:cx="176.47319"
       id="path10319"
       style="fill:#6096b2;fill-opacity:0.36725667;fill-rule:evenodd;stroke:#000000;stroke-width:4.90996456;stroke-linecap:round;stroke-linejoin:bevel;stroke-miterlimit:4;stroke-dasharray:none;stroke-opacity:1"
       sodipodi:type="arc" />
    <path
       style="fill:#e6e6e6;stroke:#000000;stroke-width:0;stroke-linecap:butt;stroke-linejoin:miter;stroke-miterlimit:4;stroke-dasharray:none;stroke-opacity:1"
       d="m 59.392952,668.81639 30.96636,44.16971 c 0,0 11.596898,-11.1822 3.26953,-44.72882"
       id="path3195"
       inkscape:connector-curvature="0" />
    <ellipse
       ry="47.429245"
       rx="49.566574"
       cy="493.65347"
       cx="124.46535"
       transform="matrix(0.99825782,-0.05900283,0.04936621,0.99878075,0,0)"
       id="ellipse6187"
       style="fill:#dab89a;fill-opacity:1;stroke:#000000;stroke-width:6.00120735;stroke-linecap:square;stroke-linejoin:round;stroke-miterlimit:4;stroke-dasharray:none;stroke-opacity:0.98222219" />
  </g>
  <g
     inkscape:groupmode="layer"
     id="layer2"
     inkscape:label="Layer 2"
     transform="translate(0,-368)">
    <ellipse
       style="fill:#000000;fill-opacity:1;fill-rule:evenodd;stroke:#000000;stroke-width:5.41023493;stroke-linecap:square;stroke-linejoin:round;stroke-miterlimit:4;stroke-dasharray:none;stroke-opacity:0.98222219"
       id="path6500"
       cx="123.25951"
       cy="472.73541"
       rx="6.3814631"
       ry="10.741642" />
    <ellipse
       style="fill:#000000;fill-opacity:1;fill-rule:evenodd;stroke:#000000;stroke-width:5.41023493;stroke-linecap:square;stroke-linejoin:round;stroke-miterlimit:4;stroke-dasharray:none;stroke-opacity:0.98222219"
       id="path6528"
       cx="156.51724"
       cy="486.74527"
       rx="7.4073687"
       ry="7.6969261" />
    <rect
       style="fill:#000000;fill-opacity:1;fill-rule:evenodd;stroke:#000000;stroke-width:5.41023493;stroke-linecap:square;stroke-linejoin:round;stroke-miterlimit:4;stroke-dasharray:none;stroke-opacity:0.98222219"
       id="rect6530"
       width="2.6483877"
       height="18.65727"
       x="147.14781"
       y="493.40768"
       ry="0.39364302"
       rx="0.37478271" />
    <ellipse
       style="fill:#000000;fill-opacity:1;fill-rule:evenodd;stroke:#000000;stroke-width:5.41023493;stroke-linecap:square;stroke-linejoin:round;stroke-miterlimit:4;stroke-dasharray:none;stroke-opacity:0.98222219"
       id="path6528-9"
       cx="140.44893"
       cy="486.34637"
       rx="7.4073687"
       ry="7.6969261" />
    <path
       sodipodi:type="arc"
       style="fill:#dab89a;fill-opacity:1;fill-rule:evenodd;stroke:#000000;stroke-width:5.41023493;stroke-linecap:round;stroke-linejoin:round;stroke-miterlimit:4;stroke-dasharray:none;stroke-opacity:1"
       id="path8392"
       sodipodi:cx="148.59593"
       sodipodi:cy="509.82416"
       sodipodi:rx="20.297394"
       sodipodi:ry="3.2563422"
       d="m 168.89333,509.82416 a 20.297394,3.2563422 0 0 1 -10.49523,2.85145 20.297394,3.2563422 0 0 1 -20.63209,-0.0974 20.297394,3.2563422 0 0 1 -9.43238,-2.94549 l 20.2623,0.19141 z"
       sodipodi:start="0"
       sodipodi:end="3.2004051" />
    <ellipse
       ry="10.741642"
       rx="6.3814631"
       cy="471.89673"
       cx="173.83009"
       id="ellipse6197"
       style="fill:#000000;fill-opacity:1;fill-rule:evenodd;stroke:#000000;stroke-width:5.41023493;stroke-linecap:square;stroke-linejoin:round;stroke-miterlimit:4;stroke-dasharray:none;stroke-opacity:0.98222219" />
    <ellipse
       ry="3.9612215"
       rx="0.49150074"
       cy="475.07108"
       cx="116.60634"
       id="ellipse6199"
       style="fill:#eeeeee;fill-opacity:1;fill-rule:evenodd;stroke:#eeeeee;stroke-width:0.9117952;stroke-linecap:square;stroke-linejoin:round;stroke-miterlimit:4;stroke-dasharray:none;stroke-opacity:0" />
    <path
       style="fill:#2c3e50;fill-opacity:1;fill-rule:nonzero;stroke:#000000;stroke-width:1.13364172;stroke-linecap:round;stroke-linejoin:round;stroke-miterlimit:4;stroke-dasharray:none;stroke-opacity:1"
       d="m 149.81093,402.12616 a 70.779403,70.017498 0 0 0 -4.72332,0.006 70.779403,70.017498 0 0 0 -61.701508,40.3979 70.779403,70.017498 0 0 0 -6.52614,27.65957 l -5.88673,0 c -0.61734,0 -1.11351,4.42402 -1.11351,9.91875 l 0,22.38514 c 0,5.49473 0.49617,9.91875 1.11351,9.91875 l 15.39055,0 c 0.61734,0 1.11455,-4.42402 1.11455,-9.91875 l 0,-22.38514 c 0,-5.49473 -0.49721,-9.91875 -1.11455,-9.91875 l -0.15699,0 a 70.984863,62.877326 88.743518 0 1 5.01234,-19.21176 70.984863,62.877326 88.743518 0 1 54.816688,-40.62503 70.984863,62.877326 88.743518 0 1 28.51144,6.65363 70.984863,62.877326 88.743518 0 1 35.06982,50.50008 l -0.46162,0 c -0.61734,0 -1.11455,4.42294 -1.11455,9.91766 l 0,22.38515 c 0,5.49473 0.49721,9.91874 1.11455,9.91874 l 15.38951,0 c 0.61733,0 1.11455,-4.42401 1.11455,-9.91874 l 0,-22.38515 c 0,-5.49472 -0.49722,-9.91766 -1.11455,-9.91766 l -6.5355,0 a 70.779403,70.017498 0 0 0 -40.83075,-58.98067 70.779403,70.017498 0 0 0 -27.36779,-6.39919 z"
       id="rect5621"
       inkscape:connector-curvature="0" />
  </g>
  <g
     inkscape:groupmode="layer"
     id="layer10"
     inkscape:label="Layer#2"
     transform="translate(0,-368)">
    <ellipse
       id="path6876"
       style="fill:#9e9e9e;fill-opacity:1;fill-rule:evenodd;stroke:#000000;stroke-width:5.45551586;stroke-linecap:round;stroke-linejoin:round;stroke-miterlimit:4;stroke-dasharray:none;stroke-opacity:1"
       cx="47.765053"
       cy="651.78137"
       rx="9.7139902"
       ry="22.343662" />
    <ellipse
       style="fill:#9e9e9e;fill-opacity:1;fill-rule:evenodd;stroke:#000000;stroke-width:5.45551586;stroke-linecap:round;stroke-linejoin:round;stroke-miterlimit:4;stroke-dasharray:none;stroke-opacity:1"
       id="path6878"
       cx="61.520882"
       cy="651.78137"
       rx="9.7139902"
       ry="22.343662" />
    <ellipse
       id="path6880"
       style="fill:#9e9e9e;fill-opacity:1;fill-rule:evenodd;stroke:#000000;stroke-width:5.45551586;stroke-linecap:round;stroke-linejoin:round;stroke-miterlimit:4;stroke-dasharray:none;stroke-opacity:1"
       cx="75.82692"
       cy="651.78137"
       rx="9.7139902"
       ry="22.343662" />
    <ellipse
       style="fill:#9e9e9e;fill-opacity:1;fill-rule:evenodd;stroke:#000000;stroke-width:5.45551586;stroke-linecap:round;stroke-linejoin:round;stroke-miterlimit:4;stroke-dasharray:none;stroke-opacity:1"
       id="path6882"
       cx="92.333908"
       cy="652.42828"
       rx="9.7139902"
       ry="22.343662" />
    <ellipse
       style="fill:#9e9e9e;fill-opacity:1;fill-rule:evenodd;stroke:#000000;stroke-width:5.45551586;stroke-linecap:round;stroke-linejoin:round;stroke-miterlimit:4;stroke-dasharray:none;stroke-opacity:1"
       id="path10290"
       cx="210.37347"
       cy="652.57208"
       rx="9.7139902"
       ry="22.343662" />
    <ellipse
       id="path10292"
       style="fill:#9e9e9e;fill-opacity:1;fill-rule:evenodd;stroke:#000000;stroke-width:5.45551586;stroke-linecap:round;stroke-linejoin:round;stroke-miterlimit:4;stroke-dasharray:none;stroke-opacity:1"
       cx="224.1293"
       cy="652.57208"
       rx="9.7139902"
       ry="22.343662" />
    <ellipse
       style="fill:#9e9e9e;fill-opacity:1;fill-rule:evenodd;stroke:#000000;stroke-width:5.45551586;stroke-linecap:round;stroke-linejoin:round;stroke-miterlimit:4;stroke-dasharray:none;stroke-opacity:1"
       id="path10294"
       cx="238.43533"
       cy="652.57208"
       rx="9.7139902"
       ry="22.343662" />
    <ellipse
       id="path10296"
       style="fill:#9e9e9e;fill-opacity:1;fill-rule:evenodd;stroke:#000000;stroke-width:5.4102354;stroke-linecap:round;stroke-linejoin:round;stroke-miterlimit:4;stroke-dasharray:none;stroke-opacity:1"
       cx="254.94232"
       cy="653.21906"
       rx="9.7139902"
       ry="22.343662" />
    <path
       style="opacity:1;fill:#d6e9f6;fill-opacity:0.33974358;stroke:#000000;stroke-width:0;stroke-linecap:square;stroke-linejoin:round;stroke-miterlimit:4;stroke-dasharray:none;stroke-opacity:1"
       id="path5438"
       sodipodi:type="arc"
       sodipodi:cx="145.89661"
       sodipodi:cy="471.905"
       sodipodi:rx="88.880814"
       sodipodi:ry="79.630501"
       sodipodi:start="0.44423342"
       sodipodi:end="0.42801756"
       sodipodi:open="true"
       d="M 226.15068,506.12747 A 88.880814,79.630501 0 0 1 108.02433,543.94474 88.880814,79.630501 0 0 1 65.335466,438.26662 88.880814,79.630501 0 0 1 183.1157,399.59252 88.880814,79.630501 0 0 1 226.75952,504.95707" />
  </g>
</svg>
