<?xml version="1.0" encoding="UTF-8" standalone="no"?>
<!-- Created with Inkscape (http://www.inkscape.org/) -->

<svg
   xmlns:dc="http://purl.org/dc/elements/1.1/"
   xmlns:cc="http://creativecommons.org/ns#"
   xmlns:rdf="http://www.w3.org/1999/02/22-rdf-syntax-ns#"
   xmlns:svg="http://www.w3.org/2000/svg"
   xmlns="http://www.w3.org/2000/svg"
   xmlns:sodipodi="http://sodipodi.sourceforge.net/DTD/sodipodi-0.dtd"
   xmlns:inkscape="http://www.inkscape.org/namespaces/inkscape"
   width="500"
   height="500"
   class="spaceMonkey"
   id="svg5871"
   version="1.1"
   inkscape:version="0.91 r13725"
   sodipodi:docname="spacemonkey-md.svg">
  <defs
     id="defs5873">
    <inkscape:perspective
       sodipodi:type="inkscape:persp3d"
       inkscape:vp_x="-223.44574 : 447.63961 : 1"
       inkscape:vp_y="0 : 1000 : 0"
       inkscape:vp_z="800.55426 : 447.63961 : 1"
       inkscape:persp3d-origin="288.55426 : 319.63961 : 1"
       id="perspective6730" />
  </defs>
  <sodipodi:namedview
     id="base"
     pagecolor="#ffffff"
     bordercolor="#666666"
     borderopacity="1.0"
     inkscape:pageopacity="0.0"
     inkscape:pageshadow="2"
     inkscape:zoom="0.3535534"
     inkscape:cx="278.74355"
     inkscape:cy="437.73131"
     inkscape:current-layer="layer20"
     inkscape:document-units="px"
     showgrid="false"
     inkscape:snap-bbox="true"
     inkscape:object-paths="false"
     inkscape:snap-bbox-midpoints="false"
     inkscape:snap-bbox-edge-midpoints="false"
     inkscape:bbox-nodes="true"
     inkscape:snap-nodes="false"
     inkscape:window-width="1197"
     inkscape:window-height="630"
     inkscape:window-x="40"
     inkscape:window-y="25"
     inkscape:window-maximized="0"
     inkscape:snap-global="false" />
  <metadata
     id="metadata5876">
    <rdf:RDF>
      <cc:Work
         rdf:about="">
        <dc:format>image/svg+xml</dc:format>
        <dc:type
           rdf:resource="http://purl.org/dc/dcmitype/StillImage" />
        <dc:title></dc:title>
      </cc:Work>
    </rdf:RDF>
  </metadata>
  <g
     inkscape:groupmode="layer"
     id="layer20"
     inkscape:label="Layer#4"
     transform="translate(0,-268)">
    <rect
       style="fill:#d8dada;fill-opacity:1;fill-rule:evenodd;stroke:#000000;stroke-width:8.92540359;stroke-linecap:round;stroke-linejoin:bevel;stroke-miterlimit:4;stroke-dasharray:none;stroke-opacity:1"
       id="rect10283"
       width="198.90018"
       height="237.80673"
       x="160.84427"
       y="459.1669"
       rx="49.722759"
       ry="77.683525" />
  </g>
  <g
     inkscape:groupmode="layer"
     id="layer19"
     inkscape:label="Layer#3"
     transform="translate(0,-268)">
    <ellipse
       style="fill:#d8dada;fill-opacity:1;fill-rule:nonzero;stroke:#000000;stroke-width:8.92540359;stroke-linecap:square;stroke-linejoin:round;stroke-miterlimit:4;stroke-dasharray:none;stroke-opacity:0.98222219"
       id="path6558"
       cx="260.29797"
       cy="569.13519"
       rx="86.646667"
       ry="106.63733" />
    <rect
       ry="77.683525"
       rx="6.802196"
       y="524.07678"
       x="204.62115"
       height="161.70856"
       width="116.19955"
       id="rect10285"
       style="fill:#d6e9f6;fill-opacity:1;fill-rule:evenodd;stroke:#000000;stroke-width:3.71891832;stroke-linecap:round;stroke-linejoin:bevel;stroke-miterlimit:4;stroke-dasharray:none;stroke-opacity:1" />
  </g>
  <g
     inkscape:groupmode="layer"
     id="layer9"
     inkscape:label="Layer#1"
     transform="translate(0,-268)">
    <ellipse
       id="path10273"
       style="fill:#8d521d;fill-opacity:1;stroke:#000000;stroke-width:8.92540359;stroke-linecap:square;stroke-linejoin:round;stroke-miterlimit:4;stroke-dasharray:none;stroke-opacity:1"
       cx="334.65613"
       cy="417.31812"
       rx="32.989704"
       ry="28.222843" />
  </g>
  <g
     inkscape:groupmode="layer"
     id="layer8"
     inkscape:label="Layer"
     transform="translate(0,-268)">
    <ellipse
       style="fill:#8d521d;fill-opacity:1;stroke:#000000;stroke-width:7.37610245;stroke-linecap:square;stroke-linejoin:round;stroke-miterlimit:4;stroke-dasharray:none;stroke-opacity:1"
       id="path5881"
       cx="174.04155"
       cy="420.48883"
       rx="32.989704"
       ry="28.222843" />
    <ellipse
       style="fill:#001d3e;fill-opacity:1;fill-rule:evenodd;stroke:#000000;stroke-width:7.37610245;stroke-linecap:square;stroke-linejoin:round;stroke-miterlimit:4;stroke-dasharray:none;stroke-opacity:0.98222219"
       id="path6439"
       cx="236.72198"
       cy="402.99072"
       rx="22.492981"
       ry="16.369249" />
    <path
       style="fill:#001d3e;fill-opacity:1;fill-rule:evenodd;stroke:#000000;stroke-width:7.37610245;stroke-linecap:square;stroke-linejoin:round;stroke-miterlimit:4;stroke-dasharray:none;stroke-opacity:0.98222219"
       id="path6456"
       d="m 212.67209,405.67897 c 0.19746,-3.24039 0.28374,-6.48596 0.44157,-9.72946 0.23953,-2.57342 -0.008,-5.20573 0.53837,-7.75206 0.3439,-1.60214 0.56607,-1.93655 1.20337,-3.47308 1.53746,-3.3174 4.08311,-6.07379 6.78442,-8.60016 3.48758,-2.86292 7.56794,-4.68563 11.73224,-6.69098 1.44456,-0.69563 4.54562,-1.14348 6.17557,-1.42076 5.10461,-0.83565 8.41081,0.23167 12.93702,2.3214 3.96541,2.40675 6.07293,6.41596 8.05359,10.29697 1.75229,4.03358 2.61165,8.30217 2.69419,12.6445 0.032,3.28946 -0.45102,6.48802 -1.95244,9.47009 -2.85104,4.35582 -7.99947,6.14012 -12.58313,8.62749 -2.82378,1.09069 -5.97554,1.10838 -8.98643,1.24931 -2.61324,0.0129 -5.23752,0.24823 -7.84449,0.0234 -2.74489,-0.50999 -5.47289,-1.14437 -8.1817,-1.80895 -2.45018,-0.80733 -4.44614,-2.22819 -6.35049,-3.83928 -2.00766,-1.89821 -2.33187,-4.58538 -2.87131,-7.08903 -0.28188,-1.29876 -0.51065,-2.60504 -0.71176,-3.91655 0,0 7.58743,-3.75551 7.58743,-3.75551 l 0,0 c 0.16151,1.30611 0.3288,2.61241 0.61044,3.90179 0.50701,2.3174 0.87186,4.82587 2.70547,6.58633 1.80873,1.52359 3.73525,2.87184 6.09623,3.54106 2.67239,0.68658 5.37426,1.37009 8.1333,1.64958 2.54825,0.10217 5.10347,0.0782 7.65178,-0.01 3.01314,-0.1537 6.14606,-0.27101 8.87055,-1.6252 -13.22865,7.2726 -6.50795,3.85005 -4.47812,2.34343 0.97918,-0.7268 1.83352,-1.62267 2.55007,-2.57777 1.88618,-2.99475 2.20542,-5.79067 2.36476,-9.22227 0.006,-0.6641 0.0522,-1.32897 0.0179,-1.9923 -0.18385,-3.54949 -1.11126,-7.07581 -2.50614,-10.36353 -1.91933,-3.73334 -3.87355,-7.61066 -7.78033,-9.84858 -1.60347,-0.74533 -2.37423,-1.18415 -4.12414,-1.65806 -2.78791,-0.75502 -5.69096,-0.7393 -8.52277,-0.23853 -1.70935,0.32678 -2.48682,0.42869 -4.15309,0.9353 -0.6649,0.20214 -2.52587,1.08019 -1.96409,0.68921 1.72645,-1.20164 3.66049,-2.11392 5.50274,-3.15214 0.50578,-0.28505 -1.01022,0.57384 -1.49292,0.89236 -0.48858,0.32238 -0.94525,0.68557 -1.41788,1.02837 -2.75148,2.41176 -5.27982,5.11541 -6.95601,8.30993 -0.24682,0.55052 -0.53002,1.08782 -0.7405,1.65155 -1.12707,3.01873 -1.068,6.22498 -1.22096,9.37662 -0.13755,3.14186 -0.19285,6.29568 0.10001,9.43186 0,0 -7.91233,3.7939 -7.91233,3.7939 z"
       inkscape:connector-curvature="0" />
    <path
       style="fill:#001d3e;fill-opacity:1;fill-rule:evenodd;stroke:#000000;stroke-width:7.37610245;stroke-linecap:square;stroke-linejoin:round;stroke-miterlimit:4;stroke-dasharray:none;stroke-opacity:0.98222219"
       id="path6458"
       d="m 219.80983,428.95988 c -0.89827,-3.82093 -1.99236,-7.59851 -2.85968,-11.42537 -1.03986,-5.6166 -1.33455,-11.33029 -1.353,-17.02247 0.3027,-3.65758 0.28397,-9.01944 2.84401,-12.05567 0.44782,-0.53111 1.05118,-0.92747 1.57676,-1.3912 3.0322,-1.62854 5.99686,-3.3739 9.09662,-4.88564 0.71185,-0.34717 1.52156,-0.4799 2.29715,-0.6711 3.26796,-0.80565 6.47879,-0.78188 9.82066,-0.5776 3.98252,0.28835 7.9464,0.97191 11.55672,2.61749 3.07503,1.63856 4.29709,4.76636 5.39047,7.74972 1.60608,4.75946 2.40609,9.71506 3.76003,14.5412 0.61882,2.0664 0.33162,1.06609 0.86623,2.99972 0,0 -7.48031,3.79101 -7.48031,3.79101 l 0,0 c -0.42772,-1.97673 -0.19874,-0.9489 -0.69018,-3.08285 -1.10577,-4.84665 -1.7533,-9.82588 -3.70454,-14.46385 -1.15661,-2.7578 -2.36726,-5.62083 -5.27631,-7.11477 -3.44117,-1.65217 -7.25066,-2.27746 -11.08322,-2.53775 -3.2859,-0.15164 -6.46611,-0.0983 -9.64301,0.8239 -0.76416,0.22184 -2.87204,1.25725 -2.24943,0.78495 1.53321,-1.16302 3.35968,-1.93428 5.03951,-2.90143 -0.55957,0.39156 -1.19142,0.70528 -1.67871,1.17468 -2.8181,2.71458 -3.07223,8.25023 -3.32889,11.78699 5e-5,5.62208 0.26777,11.27463 1.42061,16.80457 0.89911,3.71465 1.84315,7.46802 3.42386,10.98521 0,0 -7.74535,4.07026 -7.74535,4.07026 z"
       inkscape:connector-curvature="0" />
    <path
       style="fill:#001d3e;fill-opacity:1;fill-rule:evenodd;stroke:#000000;stroke-width:7.37610245;stroke-linecap:square;stroke-linejoin:round;stroke-miterlimit:4;stroke-dasharray:none;stroke-opacity:0.98222219"
       id="path6460"
       d="m 215.07134,417.53255 c -0.14541,-3.36312 -1.10357,-6.65007 -0.79796,-10.0377 0.10787,-1.19573 0.3977,-2.3707 0.59655,-3.55606 1.61611,-5.9228 4.69093,-11.55787 9.80586,-15.47787 0.75888,-0.58157 1.61572,-1.03973 2.42359,-1.5596 1.62426,-0.77805 7.76702,-5.46177 11.73923,-4.45502 2.75089,0.69721 4.64274,3.38427 5.76504,5.62485 0.52521,1.04853 0.87369,2.16767 1.31053,3.25152 1.52312,5.0617 2.16744,10.46414 0.6899,15.62151 -0.82199,2.86917 -1.55176,3.6752 -3.10289,6.16826 -0.71237,0.78632 -1.3596,1.62931 -2.1371,2.35892 -0.69077,0.64823 -1.41778,1.28279 -2.25149,1.75943 -3.63544,2.07844 -7.5705,4.8681 -12.0014,5.54946 -1.91189,0.29399 -3.02796,0.12109 -4.92711,-0.001 -2.74547,-0.54334 -6.11156,-1.17139 -7.83665,-3.51453 -0.24673,-0.33513 -0.39577,-0.72539 -0.59365,-1.08809 -0.52235,-1.41723 -0.51446,-2.87961 -0.30751,-4.34326 0,0 7.81332,-3.57755 7.81332,-3.57755 l 0,0 c -0.33874,1.30258 -0.4693,2.61421 -0.0193,3.91742 0.14932,0.30505 0.25134,0.63487 0.44794,0.91518 1.52667,2.17673 4.68924,2.71459 7.17744,3.17456 1.9154,0.0715 2.79412,0.21161 4.70735,-0.15954 0.82588,-0.16021 2.99655,-1.26902 2.42157,-0.68856 -1.17245,1.18362 -2.81474,1.87658 -4.33943,2.62466 -1.8519,0.90862 7.38628,-4.51582 4.66199,-3.93916 1.63684,-2.38502 2.43633,-3.20764 3.36128,-5.98965 1.66741,-5.01495 1.11386,-10.28063 -0.59027,-15.20085 -1.18283,-2.6464 -2.2557,-5.41732 -4.9406,-7.08269 -0.60265,-0.3738 -1.28185,-0.67708 -1.99188,-0.7991 -0.6949,-0.11939 -2.55615,0.61366 -2.11685,0.0931 1.14439,-1.35618 3.02441,-1.97376 4.53661,-2.96065 -0.86373,0.49717 -1.77767,0.92426 -2.59118,1.49153 -5.27638,3.67921 -8.54515,9.14917 -10.1283,15.05952 -0.16829,1.12565 -0.43301,2.24224 -0.50489,3.37701 -0.20781,3.28065 0.76633,6.51148 1.63258,9.65063 0,0 -7.91232,3.7939 -7.91232,3.7939 z"
       inkscape:connector-curvature="0" />
    <path
       style="fill:#001d3e;fill-opacity:1;fill-rule:evenodd;stroke:#000000;stroke-width:7.37610245;stroke-linecap:square;stroke-linejoin:round;stroke-miterlimit:4;stroke-dasharray:none;stroke-opacity:0.98222219"
       id="path6462"
       d="m 228.27765,403.91308 c 0.23018,-2.33531 0.35524,-4.68364 0.82746,-6.9916 0.34703,-1.69614 0.6349,-2.50882 1.1362,-4.1603 0.86865,-2.50641 0.39981,-1.27354 1.40376,-3.69946 0,0 7.55922,-3.28792 7.55922,-3.28792 l 0,0 c -1.05743,2.3906 -0.55829,1.17229 -1.49373,3.65623 -1.12262,3.47264 -2.05084,7.03915 -1.54143,10.69915 0,0 -7.89148,3.7839 -7.89148,3.7839 z"
       inkscape:connector-curvature="0" />
    <path
       style="fill:#001d3e;fill-opacity:1;fill-rule:evenodd;stroke:#000000;stroke-width:7.37610245;stroke-linecap:square;stroke-linejoin:round;stroke-miterlimit:4;stroke-dasharray:none;stroke-opacity:0.98222219"
       id="path6464"
       d="m 251.14109,386.26535 c -0.17409,0.35773 -0.30247,0.73853 -0.52227,1.07327 -1.00201,1.52591 -2.35086,2.85646 -3.70028,4.10049 -4.20079,3.87271 -9.01688,6.93589 -13.79517,10.13058 -4.81851,3.284 -9.90833,6.22876 -14.58586,9.69765 -2.23405,1.6568 -4.52808,3.49797 -6.23736,5.67002 -0.82809,1.0523 -1.43497,2.24384 -2.15246,3.36575 -2.38362,4.92223 -3.38134,10.28667 -2.32866,15.64942 0.6971,3.55126 1.30446,4.26429 2.89524,7.56383 0.96906,1.31027 1.80432,2.71782 2.90716,3.9308 5.23335,5.75598 13.74651,10.44415 21.02805,13.49101 1.96996,0.82429 4.00647,1.49989 6.00971,2.24984 7.50527,2.36611 15.24687,4.29204 23.1699,4.83879 1.60337,0.11064 3.21468,0.18765 4.82106,0.12784 1.42054,-0.053 2.82415,-0.31006 4.2362,-0.46511 -2.24511,1.86749 8.59898,-3.15045 6.44634,-2.36989 -1.53568,0.55683 -2.82298,2.20546 -4.45465,2.00342 -1.04915,-0.12992 1.4699,-1.45404 2.01962,-2.30497 1.80151,-2.78858 2.06601,-4.84249 2.95839,-8.04677 0.31041,-1.88714 0.70813,-3.76339 0.93123,-5.66143 0.40404,-3.43713 0.63674,-9.18361 0.62691,-12.61576 -0.0103,-3.43485 -0.23805,-8.23595 -0.74435,-11.67376 -0.26104,-1.77237 -0.7064,-3.51631 -1.0596,-5.27447 -1.82012,-6.13885 -4.72574,-12.05254 -9.21127,-16.88895 -2.00834,-2.16547 -2.99573,-2.74761 -5.29316,-4.44593 -2.65625,-1.61515 -5.58388,-2.87895 -8.82701,-2.4694 -1.41773,0.17903 -2.54523,0.66204 -3.86485,1.13306 -5.25247,2.79926 3.15891,-1.69132 3.82386,-1.9629 0.5656,-0.23101 -0.94604,0.74874 -1.36658,1.17307 -1.18341,1.19411 -1.8177,2.53968 -2.42334,4.03921 -0.9715,3.32884 0.50028,6.60513 1.5365,9.75972 0.24031,0.64006 0.4738,1.28243 0.72096,1.92019 0.61074,1.57593 0.82357,2.1551 1.60664,3.63439 0.74681,1.41077 1.58152,2.74318 2.26181,4.18644 1.15752,2.84018 1.28117,5.8911 1.39947,8.89351 -0.0119,2.07979 0.33451,4.35151 -0.49674,6.34841 -0.12457,0.29924 -0.31687,0.5694 -0.47532,0.85409 -0.49074,0.74091 -1.1833,1.28026 -1.89666,1.81605 0,0 -8.1046,3.02757 -8.1046,3.02757 l 0,0 c 0.7283,-0.4695 1.48624,-0.90716 2.05655,-1.55628 0.19281,-0.2311 0.41901,-0.44066 0.57844,-0.69329 1.11122,-1.76107 0.76039,-4.21131 0.81096,-6.15704 -0.0942,-2.90424 -0.22437,-5.85481 -1.28078,-8.61697 -1.45684,-3.30994 -3.38625,-6.43154 -4.46407,-9.8921 -0.90933,-2.5676 -2.4213,-5.9556 -2.21133,-8.68505 0.0381,-0.49686 0.19119,-0.97994 0.28678,-1.46992 0.43639,-1.20557 0.60819,-1.87368 1.30333,-2.99049 2.74738,-4.41388 8.24302,-6.23032 12.91376,-8.45191 1.50616,-0.4496 2.40609,-0.81391 4.01463,-0.89824 3.33376,-0.17481 6.2449,1.2757 8.83642,3.0989 2.12072,1.81752 3.17736,2.59169 5.03432,4.79368 4.2931,5.0908 7.21213,11.10965 9.01727,17.35025 0.33577,1.79158 0.7715,3.56909 1.00733,5.37474 0.46602,3.56823 0.54723,8.27575 0.55477,11.83845 0.007,3.3453 -0.10879,9.20415 -0.36469,12.57247 -0.14183,1.86721 -0.41024,3.72398 -0.61537,5.58599 -0.59726,3.00554 -0.78859,5.37585 -2.27078,8.09675 -2.25594,4.14128 -6.85626,5.57915 -11.07405,7.91517 -0.9266,0.51321 -1.91354,0.94269 -2.93444,1.26015 -1.11456,0.34663 -2.2914,0.48084 -3.43711,0.72127 -1.38461,0.0951 -2.76552,0.28456 -4.15383,0.28528 -2.93789,10e-4 -7.13442,-0.51259 -9.96587,-0.98351 -6.02685,-1.00237 -11.93857,-2.55931 -17.70762,-4.46956 -1.99187,-0.77606 -4.01406,-1.48659 -5.97566,-2.3282 -4.34426,-1.86385 -7.79503,-3.63147 -11.7937,-6.08997 -3.52439,-2.16687 -6.95954,-4.50033 -9.83605,-7.42515 -1.19024,-1.21023 -2.12072,-2.62562 -3.18107,-3.93843 -1.73311,-3.42705 -2.3258,-4.02116 -3.07943,-7.73646 -1.10664,-5.4558 -0.14218,-10.98128 2.11614,-16.05738 0.69863,-1.16685 1.26932,-2.41025 2.09594,-3.5005 1.74164,-2.29711 4.15991,-4.21931 6.49966,-5.93096 4.80107,-3.51219 10.04483,-6.45383 14.94321,-9.83793 4.55882,-3.07424 8.96859,-5.83483 12.90184,-9.62888 0.99878,-0.96344 2.32732,-2.38526 3.13408,-3.60474 0.16572,-0.25045 0.2622,-0.536 0.39328,-0.80399 0,0 7.98828,-3.64523 7.98828,-3.64523 z"
       inkscape:connector-curvature="0" />
    <path
       style="fill:#001d3e;fill-opacity:1;fill-rule:evenodd;stroke:#000000;stroke-width:7.37610245;stroke-linecap:square;stroke-linejoin:round;stroke-miterlimit:4;stroke-dasharray:none;stroke-opacity:0.98222219"
       id="path6468"
       d="m 211.55157,420.65538 c 1.26192,-5.31672 1.75564,-10.75868 2.16812,-16.18147 0.3473,-5.32924 0.36141,-10.67647 0.76842,-16.00206 0.26258,-2.31246 1.30038,-4.2146 3.46647,-5.42055 2.87329,-1.59968 5.79347,-3.12356 8.69022,-4.68534 2.33414,-0.97173 4.82965,-1.7544 7.3936,-1.94217 1.65943,-0.12153 2.57275,0.0435 4.2116,0.21071 5.27655,0.66166 7.49515,2.80987 11.03939,6.25805 3.43004,3.21499 5.15074,7.45308 6.79424,11.63876 1.2418,3.2056 1.78507,6.56563 2.06336,9.95016 0.23895,2.97827 -0.50314,5.90906 -1.19207,8.79312 -0.30794,1.27776 -0.55037,2.56792 -0.77867,3.85996 0,0 -7.87252,3.60158 -7.87252,3.60158 l 0,0 c 0.3014,-1.3402 0.69176,-2.6606 1.0051,-3.99852 0.7063,-2.80878 1.46361,-5.66385 1.27576,-8.57381 -0.16963,-3.34491 -0.58081,-6.6788 -1.72267,-9.87053 -1.51326,-4.12319 -3.28354,-8.19382 -6.57618,-11.37344 -3.454,-3.30848 -5.75955,-5.17082 -10.81642,-5.73859 -1.66872,-0.11935 -2.38523,-0.24844 -4.06247,-0.0544 -2.5708,0.29752 -5.05143,1.15746 -7.35548,2.23673 13.92886,-7.70254 4.87108,-2.99774 3.65097,-1.8059 -0.96365,0.94132 -1.41922,2.1476 -1.69742,3.40194 -0.78051,5.39604 -1.02794,10.84207 -1.40787,16.27183 -0.36052,5.25218 -0.66405,10.50913 -1.14786,15.75271 0,0 -7.89762,3.67115 -7.89762,3.67115 z"
       inkscape:connector-curvature="0" />
    <path
       style="fill:#001d3e;fill-opacity:1;fill-rule:evenodd;stroke:#000000;stroke-width:7.37610245;stroke-linecap:square;stroke-linejoin:round;stroke-miterlimit:4;stroke-dasharray:none;stroke-opacity:0.98222219"
       id="path6470"
       d="m 216.75273,422.5028 c -0.0723,-0.87926 -0.31387,-3.93478 -0.40769,-4.3294 -0.43226,-1.81822 -2.34021,-6.37315 -2.96493,-7.94263 -2.28532,-5.74141 -1.30672,-2.97416 -3.11535,-8.91075 -1.13184,-4.88532 -1.97129,-9.98089 -0.30815,-14.85423 0.74299,-2.17712 1.23695,-2.66596 2.48893,-4.53181 0.47704,-0.54494 0.91306,-1.12415 1.43115,-1.63484 2.62184,-2.58439 8.61933,-5.10314 10.67189,-5.7459 0.81635,-0.25565 1.63721,0.52447 2.39101,0.91479 1.85296,0.95947 3.79748,2.61447 5.3875,3.85523 4.28272,3.87129 8.8766,7.93987 12.00726,12.74684 0.52831,0.81119 0.94602,1.68178 1.41903,2.52265 2.75276,5.36578 2.76611,11.30672 2.50618,17.1254 -0.1477,2.44567 -0.38766,4.8849 -0.6124,7.32495 0.0712,0.96346 -0.46289,1.80601 -0.54442,2.75509 -0.0243,0.28272 0.0149,0.56713 0.0222,0.85069 0.40351,0.9843 1.35107,2.58157 2.70168,2.56735 0.20073,-10e-4 0.38111,-0.11879 0.57169,-0.17816 3.52691,-1.84597 0.2635,1.44967 -4.77618,2.10282 -0.93717,0.12146 1.16685,-1.40303 1.70254,-2.1368 1.40632,-1.92628 2.00508,-3.04223 3.21592,-5.07777 2.01539,-3.65596 3.97617,-7.33642 5.71687,-11.11561 0.88482,-2.09902 1.58398,-4.2647 2.31541,-6.41492 1.72348,-4.68672 4.27826,-4.31895 10.0511,-7.32515 4.23793,0.61986 7.95146,3.00461 11.36673,5.30326 0.14734,1.79093 0.45111,3.57653 0.44203,5.37279 -0.012,2.35191 -0.9167,10.23091 -1.17952,12.58926 -0.53983,4.84405 -1.0845,9.67439 -1.47629,14.53113 -0.25828,4.28048 -0.25094,8.56349 -1.12141,12.78392 -0.30799,1.35691 -0.16092,0.70481 -0.44161,1.95623 0,0 -7.81329,3.53978 -7.81329,3.53978 l 0,0 c 0.34014,-1.2943 0.15371,-0.62438 0.56398,-2.00861 1.17633,-4.29564 1.49059,-8.7038 2.02395,-13.10004 0.69935,-4.94835 1.52704,-9.88584 2.14809,-14.84341 0.45206,-3.60876 1.06022,-8.60658 0.85016,-12.26862 -0.0868,-1.51241 -0.51617,-2.99001 -0.77426,-4.485 -2.84181,-1.79932 -7.02725,-4.37338 -10.59823,-4.42738 -0.30778,-0.005 -0.60711,0.0962 -0.91067,0.1443 2.31289,-1.2784 4.63878,-2.53625 6.93869,-3.83524 0.1714,-0.0968 -0.37641,0.13202 -0.5493,0.22648 -0.90793,0.49616 -1.26007,1.55463 -1.70204,2.38862 -0.78999,2.18424 -1.47956,4.40383 -2.38921,6.54574 -1.96987,3.83789 -4.06043,7.61379 -6.18504,11.37846 -1.22968,2.12146 -1.72906,3.04572 -3.06203,5.09912 -0.46048,0.70934 -0.74375,1.57604 -1.42996,2.09942 -2.67228,2.03821 -5.64373,3.70343 -8.51507,5.48585 -0.40054,0.24863 -1.03846,0.30387 -1.49042,0.37532 -0.25782,-0.0412 -0.52593,-0.0442 -0.77342,-0.12375 -1.55139,-0.49799 -2.56854,-2.07169 -3.13634,-3.40786 -0.0867,-1.26669 0.0944,-2.44577 0.33076,-3.67424 0.44316,-2.52209 1.07855,-5.01772 1.27217,-7.57701 0.51065,-5.72455 0.49298,-11.50017 -2.22151,-16.79628 -0.4582,-0.81761 -0.87809,-1.65529 -1.37462,-2.45282 -3.01902,-4.84908 -7.17336,-9.0235 -11.69159,-12.65404 -1.78837,-1.23673 -3.50991,-2.60698 -5.58895,-3.41956 -0.66831,-0.26122 -2.54865,0.0662 -2.11116,-0.47626 1.22226,-1.51552 3.33963,-2.14658 5.04755,-3.16467 1.1978,-0.71401 -5.1007,3.26147 -3.15329,2.68667 -1.3637,1.77748 -1.9182,2.27781 -2.8007,4.39106 -1.98612,4.75599 -1.45049,9.85703 -0.384,14.74714 1.4494,4.74265 1.15834,4.25699 3.12199,8.82517 0.6045,1.40628 1.26854,2.78926 1.9109,4.18062 0.55998,1.21294 1.24558,2.3795 1.69611,3.63216 0.53397,1.48473 0.37397,3.15181 1.23218,4.55715 0,0 -7.94262,3.3073 -7.94262,3.3073 z"
       inkscape:connector-curvature="0" />
    <ellipse
       style="fill:#000000;fill-opacity:1;fill-rule:evenodd;stroke:#000000;stroke-width:7.37610245;stroke-linecap:square;stroke-linejoin:round;stroke-miterlimit:4;stroke-dasharray:none;stroke-opacity:0.98222219"
       id="path6494"
       cx="243.91972"
       cy="410.32861"
       rx="23.692606"
       ry="19.755991" />
    <rect
       style="fill:#bbbbbb;fill-opacity:1;fill-rule:nonzero;stroke:#000000;stroke-width:7.43783665;stroke-linecap:round;stroke-linejoin:round;stroke-miterlimit:4;stroke-dasharray:none;stroke-opacity:1"
       id="rect6662"
       width="234.07735"
       height="136.8037"
       x="138.9543"
       y="559.46753"
       ry="32.136242"
       rx="14.804599"
       inkscape:export-xdpi="90"
       inkscape:export-ydpi="90" />
    <path
       sodipodi:type="arc"
       style="fill:#dab89a;fill-opacity:1;fill-rule:evenodd;stroke:#000000;stroke-width:3.71891832;stroke-linecap:round;stroke-linejoin:bevel;stroke-miterlimit:4;stroke-dasharray:none;stroke-opacity:1"
       id="path10247"
       sodipodi:cx="338.96631"
       sodipodi:cy="419.36899"
       sodipodi:rx="14.96852"
       sodipodi:ry="14.532634"
       d="m 352.482,425.61461 a 14.96852,14.532634 0 0 1 -19.8938,6.90169 14.96852,14.532634 0 0 1 -7.18929,-19.28634 14.96852,14.532634 0 0 1 19.83551,-7.05806 14.96852,14.532634 0 0 1 7.3501,19.22913"
       sodipodi:start="0.44423257"
       sodipodi:end="0.42801829"
       sodipodi:open="true" />
    <path
       sodipodi:open="true"
       sodipodi:end="0.42801829"
       sodipodi:start="0.44423257"
       d="m 185.48462,427.29612 a 14.96852,14.532634 0 0 1 -19.89379,6.9017 14.96852,14.532634 0 0 1 -7.18929,-19.28634 14.96852,14.532634 0 0 1 19.83551,-7.05806 14.96852,14.532634 0 0 1 7.35009,19.22913"
       sodipodi:ry="14.532634"
       sodipodi:rx="14.96852"
       sodipodi:cy="421.05051"
       sodipodi:cx="171.96893"
       id="path10249"
       style="fill:#dab89a;fill-opacity:1;fill-rule:evenodd;stroke:#000000;stroke-width:3.71891832;stroke-linecap:round;stroke-linejoin:bevel;stroke-miterlimit:4;stroke-dasharray:none;stroke-opacity:1"
       sodipodi:type="arc" />
    <path
       sodipodi:type="star"
       style="fill:#ffffff;fill-opacity:1;stroke:#000000;stroke-width:24.75640488;stroke-linecap:square;stroke-linejoin:round;stroke-miterlimit:4;stroke-dasharray:none;stroke-opacity:1"
       id="path5444"
       sodipodi:sides="5"
       sodipodi:cx="499.39417"
       sodipodi:cy="546.6756"
       sodipodi:r1="45.086723"
       sodipodi:r2="22.543362"
       sodipodi:arg1="0.90768989"
       sodipodi:arg2="1.5360084"
       inkscape:flatsided="false"
       inkscape:rounded="0"
       inkscape:randomized="0"
       d="m 527.14811,582.20772 -26.96987,-13.0024 -26.00069,14.84587 4.03187,-29.66782 -22.15392,-20.1405 29.46169,-5.33333 12.30882,-27.29339 14.17646,26.37165 29.76119,3.27226 -20.70016,21.6319 z"
       inkscape:transform-center-x="0.14600582"
       inkscape:transform-center-y="-1.1509918"
       transform="matrix(0.30129541,0,0,0.29958883,110.7634,458.97306)" />
  </g>
  <g
     id="layer1"
     inkscape:label="Layer 1"
     inkscape:groupmode="layer"
     transform="translate(0,-268)">
    <ellipse
       style="fill:#8d521d;fill-opacity:1;stroke:#000000;stroke-width:8.92540359;stroke-linecap:square;stroke-linejoin:round;stroke-miterlimit:4;stroke-dasharray:none;stroke-opacity:0.98222219"
       id="path5879"
       cx="255.6161"
       cy="419.07773"
       rx="86.373055"
       ry="79.870644" />
    <ellipse
       style="fill:#9e9e9e;fill-opacity:1;fill-rule:evenodd;stroke:#000000;stroke-width:7.43783665;stroke-linecap:round;stroke-linejoin:round;stroke-miterlimit:4;stroke-dasharray:none;stroke-opacity:1"
       id="path6850"
       cx="145.63097"
       cy="683.59644"
       rx="42.200577"
       ry="63.590302" />
    <ellipse
       id="path10288"
       style="fill:#9e9e9e;fill-opacity:1;fill-rule:evenodd;stroke:#000000;stroke-width:7.43783665;stroke-linecap:round;stroke-linejoin:round;stroke-miterlimit:4;stroke-dasharray:none;stroke-opacity:1"
       cx="372.14166"
       cy="682.01105"
       rx="42.200577"
       ry="63.590302" />
    <path
       sodipodi:type="arc"
       style="fill:#6096b2;fill-opacity:0.36725667;fill-rule:evenodd;stroke:#000000;stroke-width:6.69405317;stroke-linecap:round;stroke-linejoin:bevel;stroke-miterlimit:4;stroke-dasharray:none;stroke-opacity:1"
       id="path10317"
       sodipodi:cx="234.0412"
       sodipodi:cy="549.44287"
       sodipodi:rx="10.20672"
       sodipodi:ry="10.040729"
       d="m 243.25726,553.75803 a 10.20672,10.040729 0 0 1 -13.56516,4.76844 10.20672,10.040729 0 0 1 -4.90222,-13.32511 10.20672,10.040729 0 0 1 13.52542,-4.87648 10.20672,10.040729 0 0 1 5.01187,13.28558"
       sodipodi:start="0.44423257"
       sodipodi:end="0.42801829"
       sodipodi:open="true" />
    <path
       sodipodi:open="true"
       sodipodi:end="0.42801829"
       sodipodi:start="0.44423257"
       d="m 304.75931,553.4938 a 10.20672,10.040729 0 0 1 -13.56516,4.76845 10.20672,10.040729 0 0 1 -4.90223,-13.32511 10.20672,10.040729 0 0 1 13.52542,-4.87648 10.20672,10.040729 0 0 1 5.01188,13.28558"
       sodipodi:ry="10.040729"
       sodipodi:rx="10.20672"
       sodipodi:cy="549.17865"
       sodipodi:cx="295.54324"
       id="path10319"
       style="fill:#6096b2;fill-opacity:0.36725667;fill-rule:evenodd;stroke:#000000;stroke-width:6.69405317;stroke-linecap:round;stroke-linejoin:bevel;stroke-miterlimit:4;stroke-dasharray:none;stroke-opacity:1"
       sodipodi:type="arc" />
    <path
       style="fill:#e6e6e6;stroke:#000000;stroke-width:0;stroke-linecap:butt;stroke-linejoin:miter;stroke-miterlimit:4;stroke-dasharray:none;stroke-opacity:1"
       d="m 132.73516,660.48887 43.06084,59.04101 c 0,0 16.12629,-14.94709 4.54651,-59.78837"
       id="path3195"
       inkscape:connector-curvature="0" />
    <ellipse
       ry="63.404346"
       rx="68.916588"
       cy="429.63431"
       cx="235.12553"
       transform="matrix(0.99838989,-0.05672405,0.05135105,0.99868066,0,0)"
       id="ellipse6187"
       style="fill:#dab89a;fill-opacity:1;stroke:#000000;stroke-width:8.18167973;stroke-linecap:square;stroke-linejoin:round;stroke-miterlimit:4;stroke-dasharray:none;stroke-opacity:0.98222219" />
  </g>
  <g
     inkscape:groupmode="layer"
     id="layer2"
     inkscape:label="Layer 2"
     transform="translate(0,-268)">
    <ellipse
       style="fill:#000000;fill-opacity:1;fill-rule:evenodd;stroke:#000000;stroke-width:7.37610245;stroke-linecap:square;stroke-linejoin:round;stroke-miterlimit:4;stroke-dasharray:none;stroke-opacity:0.98222219"
       id="path6500"
       cx="221.54597"
       cy="398.39023"
       rx="8.8738604"
       ry="14.358199" />
    <ellipse
       style="fill:#000000;fill-opacity:1;fill-rule:evenodd;stroke:#000000;stroke-width:7.37610245;stroke-linecap:square;stroke-linejoin:round;stroke-miterlimit:4;stroke-dasharray:none;stroke-opacity:0.98222219"
       id="path6528"
       cx="267.79312"
       cy="417.117"
       rx="10.300452"
       ry="10.288371" />
    <rect
       style="fill:#000000;fill-opacity:1;fill-rule:evenodd;stroke:#000000;stroke-width:7.37610245;stroke-linecap:square;stroke-linejoin:round;stroke-miterlimit:4;stroke-dasharray:none;stroke-opacity:0.98222219"
       id="rect6530"
       width="3.6827641"
       height="24.938906"
       x="254.7643"
       y="426.02255"
       ry="0.52617699"
       rx="0.52116096" />
    <ellipse
       style="fill:#000000;fill-opacity:1;fill-rule:evenodd;stroke:#000000;stroke-width:7.37610245;stroke-linecap:square;stroke-linejoin:round;stroke-miterlimit:4;stroke-dasharray:none;stroke-opacity:0.98222219"
       id="path6528-9"
       cx="245.44904"
       cy="416.58383"
       rx="10.300452"
       ry="10.288371" />
    <path
       sodipodi:type="arc"
       style="fill:#dab89a;fill-opacity:1;fill-rule:evenodd;stroke:#000000;stroke-width:7.37610245;stroke-linecap:round;stroke-linejoin:round;stroke-miterlimit:4;stroke-dasharray:none;stroke-opacity:1"
       id="path8392"
       sodipodi:cx="256.77802"
       sodipodi:cy="447.96622"
       sodipodi:rx="28.224913"
       sodipodi:ry="4.352706"
       d="m 285.00293,447.96622 a 28.224913,4.352706 0 0 1 -14.59433,3.81149 28.224913,4.352706 0 0 1 -28.69034,-0.13015 28.224913,4.352706 0 0 1 -13.11636,-3.93719 l 28.17612,0.25585 z"
       sodipodi:start="0"
       sodipodi:end="3.2004051" />
    <ellipse
       ry="14.358199"
       rx="8.8738604"
       cy="397.26917"
       cx="291.86783"
       id="ellipse6197"
       style="fill:#000000;fill-opacity:1;fill-rule:evenodd;stroke:#000000;stroke-width:7.37610245;stroke-linecap:square;stroke-linejoin:round;stroke-miterlimit:4;stroke-dasharray:none;stroke-opacity:0.98222219" />
    <ellipse
       ry="5.294908"
       rx="0.68346536"
       cy="401.5123"
       cx="212.2943"
       id="ellipse6199"
       style="fill:#eeeeee;fill-opacity:1;fill-rule:evenodd;stroke:#eeeeee;stroke-width:1.24310589;stroke-linecap:square;stroke-linejoin:round;stroke-miterlimit:4;stroke-dasharray:none;stroke-opacity:0" />
    <path
       style="fill:#2c3e50;fill-opacity:1;fill-rule:nonzero;stroke:#000000;stroke-width:1.54556274;stroke-linecap:round;stroke-linejoin:round;stroke-miterlimit:4;stroke-dasharray:none;stroke-opacity:1"
       d="m 258.46754,304.00785 a 98.423596,93.591387 0 0 0 -6.5681,0.008 98.423596,93.591387 0 0 0 -85.80016,53.99929 98.423596,93.591387 0 0 0 -9.07505,36.97215 l -8.1859,0 c -0.85845,0 -1.54841,5.91352 -1.54841,13.25825 l 0,29.9219 c 0,7.34473 0.68996,13.25825 1.54841,13.25825 l 21.40162,0 c 0.85845,0 1.54986,-5.91352 1.54986,-13.25825 l 0,-29.9219 c 0,-7.34473 -0.69141,-13.25825 -1.54986,-13.25825 l -0.21831,0 a 94.887128,87.43275 88.134277 0 1 6.97001,-25.68009 94.887128,87.43275 88.134277 0 1 76.22634,-54.30289 94.887128,87.43275 88.134277 0 1 39.64711,8.89381 94.887128,87.43275 88.134277 0 1 48.76698,67.50274 l -0.64191,0 c -0.85846,0 -1.54986,5.91208 -1.54986,13.25679 l 0,29.92191 c 0,7.34472 0.6914,13.25824 1.54986,13.25824 l 21.40016,0 c 0.85845,0 1.54986,-5.91352 1.54986,-13.25824 l 0,-29.92191 c 0,-7.34471 -0.69141,-13.25679 -1.54986,-13.25679 l -9.08806,0 a 98.423596,93.591387 0 0 0 -56.77794,-78.83862 98.423596,93.591387 0 0 0 -38.05679,-8.55371 z"
       id="rect5621"
       inkscape:connector-curvature="0" />
  </g>
  <g
     inkscape:groupmode="layer"
     id="layer10"
     inkscape:label="Layer#2"
     transform="translate(0,-268)">
    <ellipse
       id="path6876"
       style="fill:#9e9e9e;fill-opacity:1;fill-rule:evenodd;stroke:#000000;stroke-width:7.43783665;stroke-linecap:round;stroke-linejoin:round;stroke-miterlimit:4;stroke-dasharray:none;stroke-opacity:1"
       cx="116.56577"
       cy="637.71844"
       rx="13.507967"
       ry="29.866453" />
    <ellipse
       style="fill:#9e9e9e;fill-opacity:1;fill-rule:evenodd;stroke:#000000;stroke-width:7.43783665;stroke-linecap:round;stroke-linejoin:round;stroke-miterlimit:4;stroke-dasharray:none;stroke-opacity:1"
       id="path6878"
       cx="135.6942"
       cy="637.71844"
       rx="13.507967"
       ry="29.866453" />
    <ellipse
       id="path6880"
       style="fill:#9e9e9e;fill-opacity:1;fill-rule:evenodd;stroke:#000000;stroke-width:7.43783665;stroke-linecap:round;stroke-linejoin:round;stroke-miterlimit:4;stroke-dasharray:none;stroke-opacity:1"
       cx="155.58772"
       cy="637.71844"
       rx="13.507967"
       ry="29.866453" />
    <ellipse
       style="fill:#9e9e9e;fill-opacity:1;fill-rule:evenodd;stroke:#000000;stroke-width:7.43783665;stroke-linecap:round;stroke-linejoin:round;stroke-miterlimit:4;stroke-dasharray:none;stroke-opacity:1"
       id="path6882"
       cx="178.54181"
       cy="638.58313"
       rx="13.507967"
       ry="29.866453" />
    <ellipse
       style="fill:#9e9e9e;fill-opacity:1;fill-rule:evenodd;stroke:#000000;stroke-width:7.43783665;stroke-linecap:round;stroke-linejoin:round;stroke-miterlimit:4;stroke-dasharray:none;stroke-opacity:1"
       id="path10290"
       cx="342.6839"
       cy="638.77533"
       rx="13.507967"
       ry="29.866453" />
    <ellipse
       id="path10292"
       style="fill:#9e9e9e;fill-opacity:1;fill-rule:evenodd;stroke:#000000;stroke-width:7.43783665;stroke-linecap:round;stroke-linejoin:round;stroke-miterlimit:4;stroke-dasharray:none;stroke-opacity:1"
       cx="361.81232"
       cy="638.77533"
       rx="13.507967"
       ry="29.866453" />
    <ellipse
       style="fill:#9e9e9e;fill-opacity:1;fill-rule:evenodd;stroke:#000000;stroke-width:7.43783665;stroke-linecap:round;stroke-linejoin:round;stroke-miterlimit:4;stroke-dasharray:none;stroke-opacity:1"
       id="path10294"
       cx="381.70584"
       cy="638.77533"
       rx="13.507967"
       ry="29.866453" />
    <ellipse
       id="path10296"
       style="fill:#9e9e9e;fill-opacity:1;fill-rule:evenodd;stroke:#000000;stroke-width:7.37610292;stroke-linecap:round;stroke-linejoin:round;stroke-miterlimit:4;stroke-dasharray:none;stroke-opacity:1"
       cx="404.65994"
       cy="639.64014"
       rx="13.507967"
       ry="29.866453" />
    <path
       style="opacity:1;fill:#d6e9f6;fill-opacity:0.33974358;stroke:#000000;stroke-width:0;stroke-linecap:square;stroke-linejoin:round;stroke-miterlimit:4;stroke-dasharray:none;stroke-opacity:1"
       id="path5438"
       sodipodi:type="arc"
       sodipodi:cx="253.71973"
       sodipodi:cy="393.27017"
       sodipodi:rx="114.55774"
       sodipodi:ry="102.43233"
       sodipodi:start="0.44423342"
       sodipodi:end="0.42801756"
       sodipodi:open="true"
       d="M 357.15854,437.29209 A 114.55774,102.43233 0 0 1 204.90647,485.93816 114.55774,102.43233 0 0 1 149.88514,349.9996 114.55774,102.43233 0 0 1 301.69111,300.25135 114.55774,102.43233 0 0 1 357.94326,435.78655" />
  </g>
</svg>
