<?xml version="1.0" encoding="UTF-8" standalone="no"?>
<!-- Created with Inkscape (http://www.inkscape.org/) -->

<svg
   xmlns:dc="http://purl.org/dc/elements/1.1/"
   xmlns:cc="http://creativecommons.org/ns#"
   xmlns:rdf="http://www.w3.org/1999/02/22-rdf-syntax-ns#"
   xmlns:svg="http://www.w3.org/2000/svg"
   xmlns="http://www.w3.org/2000/svg"
   xmlns:sodipodi="http://sodipodi.sourceforge.net/DTD/sodipodi-0.dtd"
   xmlns:inkscape="http://www.inkscape.org/namespaces/inkscape"
   width="1024px"
   height="768px"
   id="svg5871"
   class='spaceMonkey'
   version="1.1"
   inkscape:version="0.91 r13725"
   sodipodi:docname="spacemonkey_2.svg">
  <defs
     id="defs5873">
    <inkscape:perspective
       sodipodi:type="inkscape:persp3d"
       inkscape:vp_x="-223.44574 : 447.63961 : 1"
       inkscape:vp_y="0 : 1000 : 0"
       inkscape:vp_z="800.55426 : 447.63961 : 1"
       inkscape:persp3d-origin="288.55426 : 319.63961 : 1"
       id="perspective6730" />
  </defs>
  <sodipodi:namedview
     id="base"
     pagecolor="#ffffff"
     bordercolor="#666666"
     borderopacity="1.0"
     inkscape:pageopacity="0.0"
     inkscape:pageshadow="2"
     inkscape:zoom="0.70710678"
     inkscape:cx="492.76301"
     inkscape:cy="437.5547"
     inkscape:current-layer="layer19"
     inkscape:document-units="px"
     showgrid="false"
     inkscape:snap-bbox="false"
     inkscape:object-paths="false"
     inkscape:snap-bbox-midpoints="false"
     inkscape:snap-bbox-edge-midpoints="false"
     inkscape:bbox-nodes="true"
     inkscape:snap-nodes="false"
     inkscape:window-width="1197"
     inkscape:window-height="630"
     inkscape:window-x="40"
     inkscape:window-y="25"
     inkscape:window-maximized="0"
     inkscape:snap-global="false" />
  <metadata
     id="metadata5876">
    <rdf:RDF>
      <cc:Work
         rdf:about="">
        <dc:format>image/svg+xml</dc:format>
        <dc:type
           rdf:resource="http://purl.org/dc/dcmitype/StillImage" />
        <dc:title></dc:title>
      </cc:Work>
    </rdf:RDF>
  </metadata>
  <g
     inkscape:groupmode="layer"
     id="layer20"
     inkscape:label="Layer#4">
    <rect
       style="fill:#d8dada;fill-opacity:1;fill-rule:evenodd;stroke:#000000;stroke-width:12;stroke-linecap:round;stroke-linejoin:bevel;stroke-miterlimit:4;stroke-opacity:1;stroke-dasharray:none"
       id="rect10283"
       width="268.70053"
       height="318.19803"
       x="383.29349"
       y="302.15518"
       rx="67.17205"
       ry="103.94469" />
  </g>
  <g
     inkscape:groupmode="layer"
     id="layer19"
     inkscape:label="Layer#3">
    <path
       sodipodi:type="arc"
       style="fill:#d8dada;fill-opacity:1;fill-rule:nonzero;stroke:#000000;stroke-width:17.2261823;stroke-linecap:square;stroke-linejoin:round;stroke-miterlimit:4;stroke-opacity:0.98222219;stroke-dasharray:none"
       id="path6558"
       sodipodi:cx="362.03867"
       sodipodi:cy="538.8974"
       sodipodi:rx="166.69235"
       sodipodi:ry="206.47517"
       d="m 528.73102,538.8974 a 166.69235,206.47517 0 1 1 -333.38471,0 166.69235,206.47517 0 1 1 333.38471,0 z"
       transform="matrix(0.7022142,0,0,0.69105849,263.41991,76.888936)" />
    <rect
       ry="103.94469"
       rx="9.1893015"
       y="389.008"
       x="442.43307"
       height="216.37465"
       width="156.97766"
       id="rect10285"
       style="fill:#d6e9f6;fill-opacity:1;fill-rule:evenodd;stroke:#000000;stroke-width:5;stroke-linecap:round;stroke-linejoin:bevel;stroke-miterlimit:4;stroke-opacity:1;stroke-dasharray:none" />
  </g>
  <g
     inkscape:groupmode="layer"
     id="layer9"
     inkscape:label="Layer#1">
    <path
       transform="matrix(0.40515305,0,0,0.37763665,528.96779,104.16785)"
       d="m 330,376 a 110,100 0 1 1 -220,0 110,100 0 1 1 220,0 z"
       sodipodi:ry="100"
       sodipodi:rx="110"
       sodipodi:cy="376"
       sodipodi:cx="220"
       id="path10273"
       style="fill:#8d521d;fill-opacity:1;stroke:#000000;stroke-width:30.67853534;stroke-linecap:square;stroke-linejoin:round;stroke-miterlimit:4;stroke-opacity:1;stroke-dasharray:none"
       sodipodi:type="arc" />
  </g>
  <g
     inkscape:groupmode="layer"
     id="layer8"
     inkscape:label="Layer">
    <path
       sodipodi:type="arc"
       style="fill:#8d521d;fill-opacity:1;stroke:#000000;stroke-width:25.35325241;stroke-linecap:square;stroke-linejoin:round;stroke-miterlimit:4;stroke-opacity:1;stroke-dasharray:none"
       id="path5881"
       sodipodi:cx="220"
       sodipodi:cy="376"
       sodipodi:rx="110"
       sodipodi:ry="100"
       d="m 330,376 a 110,100 0 1 1 -220,0 110,100 0 1 1 220,0 z"
       transform="matrix(0.40515305,0,0,0.37763665,311.98844,108.41049)" />
    <path
       sodipodi:type="arc"
       style="fill:#001d3e;fill-opacity:1;fill-rule:evenodd;stroke:#000000;stroke-width:25.35325241;stroke-linecap:square;stroke-linejoin:round;stroke-miterlimit:4;stroke-opacity:0.98222219;stroke-dasharray:none"
       id="path6439"
       sodipodi:cx="429"
       sodipodi:cy="340"
       sodipodi:rx="75"
       sodipodi:ry="58"
       d="m 504,340 a 75,58 0 1 1 -150,0 75,58 0 1 1 150,0 z"
       transform="matrix(0.40515305,0,0,0.37763665,311.98844,98.591954)" />
    <path
       style="fill:#001d3e;fill-opacity:1;fill-rule:evenodd;stroke:#000000;stroke-width:9.91699982;stroke-linecap:square;stroke-linejoin:round;stroke-miterlimit:4;stroke-opacity:0.98222219;stroke-dasharray:none"
       id="path6456"
       d="m 453.30932,230.58545 c 0.26675,-4.3358 0.38331,-8.67855 0.59653,-13.01852 0.32359,-3.44338 -0.0107,-6.96555 0.72731,-10.37267 0.46458,-2.14376 0.76473,-2.59122 1.62567,-4.64717 2.077,-4.43886 5.516,-8.12706 9.16529,-11.50748 4.71147,-3.83074 10.22376,-6.26962 15.84944,-8.95287 1.9515,-0.9308 6.14082,-1.53004 8.34278,-1.90106 6.89599,-1.11814 11.36243,0.30998 17.47703,3.10615 5.357,3.22037 8.20412,8.5849 10.87985,13.7779 2.36722,5.39715 3.52816,11.10874 3.63966,16.91901 0.0433,4.40147 -0.60929,8.68132 -2.63761,12.67149 -3.85155,5.8283 -10.80673,8.2158 -16.99895,11.54403 -3.81472,1.45941 -8.07254,1.48308 -12.14005,1.67164 -3.53031,0.0173 -7.07553,0.33215 -10.59737,0.0313 -3.70815,-0.6824 -7.39349,-1.53122 -11.05292,-2.42047 -3.31002,-1.08026 -6.00643,-2.98143 -8.57908,-5.13716 -2.7122,-2.53991 -3.1502,-6.13548 -3.87894,-9.48551 -0.38079,-1.7378 -0.68985,-3.48567 -0.96153,-5.24055 0,0 10.25009,-5.02507 10.25009,-5.02507 l 0,0 c 0.21819,1.74765 0.4442,3.49554 0.82467,5.22081 0.68493,3.1008 1.17782,6.45726 3.6549,8.81286 2.44347,2.03865 5.04607,3.84267 8.23559,4.73812 3.61022,0.91868 7.26026,1.83325 10.98753,2.20723 3.44251,0.13677 6.89444,0.10469 10.33703,-0.0139 4.07055,-0.20566 8.30292,-0.36263 11.98352,-2.1746 -17.87101,9.73112 -8.7918,5.15158 -6.04965,3.13563 1.32281,-0.9725 2.47697,-2.17121 3.44499,-3.44919 2.54809,-4.00714 2.97936,-7.74823 3.19463,-12.33989 0.008,-0.8886 0.0706,-1.77824 0.0241,-2.66581 -0.24836,-4.74939 -1.50123,-9.46781 -3.38562,-13.86695 -2.59288,-4.9954 -5.23289,-10.18347 -10.51069,-13.17792 -2.16617,-0.99729 -3.20742,-1.58446 -5.57144,-2.21858 -3.76626,-1.01025 -7.6881,-0.98921 -11.51367,-0.31915 -2.30922,0.43725 -3.35953,0.5736 -5.61055,1.25148 -0.89822,0.27048 -3.41227,1.44535 -2.65334,0.92219 2.33232,-1.60785 4.94507,-2.82854 7.43382,-4.21773 0.68328,-0.3814 -1.36474,0.76783 -2.01684,1.19402 -0.66002,0.43137 -1.27695,0.91734 -1.91545,1.37602 -3.71706,3.22707 -7.13268,6.84468 -9.39709,11.11913 -0.33344,0.73662 -0.71603,1.45556 -1.00037,2.20986 -1.5226,4.03923 -1.4428,8.32935 -1.64942,12.54642 -0.18584,4.20397 -0.26053,8.42395 0.13511,12.62033 0,0 -10.68902,5.07643 -10.68902,5.07643 z"
       inkscape:connector-curvature="0" />
    <path
       style="fill:#001d3e;fill-opacity:1;fill-rule:evenodd;stroke:#000000;stroke-width:9.91699982;stroke-linecap:square;stroke-linejoin:round;stroke-miterlimit:4;stroke-opacity:0.98222219;stroke-dasharray:none"
       id="path6458"
       d="m 462.95192,261.73655 c -1.2135,-5.11261 -2.69154,-10.16721 -3.86323,-15.28776 -1.40479,-7.51531 -1.80289,-15.16052 -1.82781,-22.77697 0.40893,-4.89404 0.38362,-12.06848 3.84206,-16.13112 0.60497,-0.71066 1.42007,-1.241 2.1301,-1.86149 4.0963,-2.17908 8.10135,-4.51446 12.28891,-6.53726 0.96166,-0.46453 2.05552,-0.64212 3.1033,-0.89796 4.41479,-1.078 8.75239,-1.0462 13.26703,-0.77287 5.38011,0.38583 10.73505,1.30048 15.61234,3.50235 4.15416,2.19248 5.80508,6.37764 7.28216,10.36954 2.1697,6.36841 3.25046,12.99927 5.07953,19.45689 0.836,2.76495 0.448,1.42648 1.17022,4.01379 0,0 -10.10538,5.07257 -10.10538,5.07257 l 0,0 c -0.57782,-2.64497 -0.26848,-1.26968 -0.93238,-4.12501 -1.49383,-6.48508 -2.3686,-13.14755 -5.00459,-19.3534 -1.56249,-3.69009 -3.19801,-7.52098 -7.12794,-9.51995 -4.64877,-2.21068 -9.79514,-3.04735 -14.97266,-3.39564 -4.43902,-0.2029 -8.73527,-0.13164 -13.02706,1.10241 -1.03232,0.29684 -3.87992,1.68228 -3.03881,1.05032 2.07125,-1.55618 4.53869,-2.58817 6.80803,-3.88227 -0.75594,0.52393 -1.60953,0.9437 -2.26782,1.57178 -3.80706,3.63226 -4.15037,11.03925 -4.49711,15.77163 7e-5,7.52262 0.36174,15.08605 1.91915,22.48539 1.21464,4.97041 2.48997,9.99262 4.62541,14.69881 0,0 -10.46345,5.44622 -10.46345,5.44622 z"
       inkscape:connector-curvature="0" />
    <path
       style="fill:#001d3e;fill-opacity:1;fill-rule:evenodd;stroke:#000000;stroke-width:9.91699982;stroke-linecap:square;stroke-linejoin:round;stroke-miterlimit:4;stroke-opacity:0.98222219;stroke-dasharray:none"
       id="path6460"
       d="m 456.55055,246.44617 c -0.19645,-4.50004 -1.49085,-8.89814 -1.078,-13.43096 0.1457,-1.59996 0.53727,-3.17213 0.8059,-4.75821 2.18326,-7.92503 6.33713,-15.46505 13.24706,-20.71021 1.02518,-0.77818 2.18272,-1.39122 3.2741,-2.08683 2.19426,-1.04107 10.49272,-7.30815 15.85889,-5.96105 3.71626,0.93291 6.27203,4.52833 7.78819,7.52635 0.70951,1.40299 1.18028,2.90046 1.77042,4.35069 2.05763,6.77284 2.92806,14.00159 0.93201,20.90243 -1.11044,3.8391 -2.09633,4.9176 -4.19178,8.25346 -0.96237,1.05213 -1.83674,2.18009 -2.88709,3.15636 -0.93317,0.86736 -1.91532,1.71643 -3.04161,2.3542 -4.91122,2.78107 -10.22723,6.51378 -16.21307,7.42547 -2.58283,0.39339 -4.09056,0.16203 -6.65619,-0.002 -3.70894,-0.72702 -8.25629,-1.5674 -10.58677,-4.70264 -0.33332,-0.44841 -0.53466,-0.9706 -0.80197,-1.45591 -0.70567,-1.89634 -0.695,-3.85309 -0.41544,-5.81152 0,0 10.55527,-4.78695 10.55527,-4.78695 l 0,0 c -0.45762,1.74291 -0.634,3.49796 -0.0261,5.24171 0.20173,0.40818 0.33954,0.84949 0.60514,1.22456 2.06242,2.91258 6.33483,3.63227 9.69622,4.24773 2.58758,0.0957 3.77467,0.28315 6.35932,-0.21347 1.11569,-0.21438 4.04813,-1.69801 3.27138,-0.92132 -1.58391,1.58373 -3.80253,2.51095 -5.86229,3.51193 -2.50178,1.21578 9.97837,-6.04241 6.29803,-5.27081 2.21127,-3.19129 3.29132,-4.29199 4.54087,-8.01446 2.25255,-6.71028 1.50474,-13.75604 -0.79742,-20.33956 -1.59791,-3.54102 -3.04729,-7.24865 -6.67441,-9.47701 -0.81413,-0.50017 -1.73169,-0.90597 -2.69089,-1.06923 -0.93877,-0.15976 -3.45319,0.8211 -2.85973,0.12452 1.546,-1.81464 4.08577,-2.641 6.12865,-3.96151 -1.16683,0.66524 -2.40151,1.23672 -3.5005,1.99574 -7.12804,4.92298 -11.54391,12.24208 -13.68263,20.15045 -0.22736,1.50618 -0.58498,3.00024 -0.68209,4.51861 -0.28074,4.38969 1.03526,8.71272 2.20551,12.91306 0,0 -10.68901,5.07644 -10.68901,5.07644 z"
       inkscape:connector-curvature="0" />
    <path
       style="fill:#001d3e;fill-opacity:1;fill-rule:evenodd;stroke:#000000;stroke-width:9.91699982;stroke-linecap:square;stroke-linejoin:round;stroke-miterlimit:4;stroke-opacity:0.98222219;stroke-dasharray:none"
       id="path6462"
       d="m 474.39137,228.2226 c 0.31096,-3.12478 0.4799,-6.26697 1.11784,-9.35513 0.46881,-2.26953 0.85771,-3.35693 1.53493,-5.5667 1.17349,-3.35371 0.54012,-1.70408 1.89639,-4.95009 0,0 10.21198,-4.39941 10.21198,-4.39941 l 0,0 c -1.42851,3.19875 -0.75421,1.5686 -2.01793,4.89225 -1.51658,4.64657 -2.77054,9.41875 -2.08236,14.31602 0,0 -10.66085,5.06306 -10.66085,5.06306 z"
       inkscape:connector-curvature="0" />
    <path
       style="fill:#001d3e;fill-opacity:1;fill-rule:evenodd;stroke:#000000;stroke-width:9.91699982;stroke-linecap:square;stroke-linejoin:round;stroke-miterlimit:4;stroke-opacity:0.98222219;stroke-dasharray:none"
       id="path6464"
       d="m 505.27831,204.609 c -0.23518,0.47867 -0.40861,0.9882 -0.70555,1.43609 -1.35365,2.04175 -3.17585,3.8221 -4.99883,5.48667 -5.67497,5.1819 -12.18119,9.28059 -18.63632,13.55526 -6.50948,4.39416 -13.38548,8.33441 -19.70451,12.97597 -3.01804,2.21688 -6.11711,4.68047 -8.42625,7.58679 -1.11869,1.40804 -1.93854,3.00237 -2.90782,4.50355 -3.2201,6.58621 -4.56796,13.76411 -3.14585,20.93976 0.94173,4.75176 1.76224,5.70583 3.91126,10.1208 1.30913,1.75321 2.43751,3.63659 3.92737,5.25962 7.06991,7.70181 18.57061,13.97482 28.40746,18.05169 2.66129,1.10295 5.41247,2.00693 8.11871,3.01041 10.13911,3.16597 20.59749,5.74297 31.30096,6.47456 2.16603,0.14804 4.3428,0.25108 6.51291,0.17104 1.91906,-0.0709 3.81524,-0.41487 5.72283,-0.62233 -3.03301,2.4988 11.61662,-4.21547 8.70855,-3.17105 -2.0746,0.74508 -3.81364,2.95104 -6.01791,2.68069 -1.41734,-0.17384 1.98573,-1.94558 2.72836,-3.08417 2.43371,-3.73127 2.79103,-6.47951 3.99659,-10.767 0.41934,-2.5251 0.95662,-5.03562 1.25803,-7.5753 0.54583,-4.59906 0.86019,-12.28815 0.84691,-16.88056 -0.0132,-4.59601 -0.3216,-11.02013 -1.00558,-15.62012 -0.35265,-2.37151 -0.9543,-4.705 -1.43143,-7.05751 -2.45887,-8.21411 -6.38417,-16.12694 -12.4438,-22.59832 -2.71313,-2.8975 -4.04703,-3.67644 -7.15071,-5.94889 -3.58842,-2.16115 -7.54344,-3.85218 -11.92467,-3.30418 -1.91527,0.23956 -3.43843,0.88584 -5.22116,1.51609 -7.09572,3.74557 4.26747,-2.26307 5.16578,-2.62646 0.76409,-0.30911 -1.27805,1.00185 -1.84617,1.56963 -1.59869,1.59777 -2.45558,3.39822 -3.27376,5.40468 -1.31242,4.45417 0.67584,8.83802 2.0757,13.05902 0.32465,0.85644 0.64008,1.71595 0.97398,2.56932 0.82506,2.10867 1.11259,2.88363 2.17046,4.863 1.00888,1.88769 2.13653,3.67052 3.05554,5.60168 1.56373,3.80031 1.73079,7.88262 1.8906,11.89999 -0.016,2.78288 0.45189,5.82255 -0.67107,8.49451 -0.16828,0.4004 -0.42808,0.76189 -0.64212,1.14282 -0.66296,0.99138 -1.59856,1.71305 -2.56226,2.42998 0,0 -10.94877,4.05105 -10.94877,4.05105 l 0,0 c 0.9839,-0.62823 2.00782,-1.21384 2.77826,-2.0824 0.26048,-0.30922 0.56606,-0.58962 0.78144,-0.92765 1.50119,-2.35641 1.02723,-5.63496 1.09556,-8.23844 -0.12723,-3.88604 -0.30312,-7.83405 -1.73026,-11.52998 -1.96809,-4.42887 -4.57458,-8.60574 -6.03064,-13.23615 -1.22846,-3.43558 -3.27101,-7.9689 -2.98736,-11.62106 0.0515,-0.66482 0.25829,-1.31121 0.38743,-1.96682 0.58952,-1.61313 0.82161,-2.5071 1.76071,-4.00145 3.71151,-5.906 11.13575,-8.33649 17.4456,-11.3091 2.03471,-0.60159 3.25045,-1.08905 5.42348,-1.20189 4.50369,-0.2339 8.43644,1.70696 11.9374,4.14649 2.86494,2.43193 4.2924,3.46782 6.80102,6.4142 5.7997,6.81176 9.74311,14.8653 12.18172,23.21555 0.4536,2.39723 1.04224,4.77564 1.36084,7.1917 0.62956,4.77448 0.73927,11.07338 0.74946,15.84047 0.01,4.47619 -0.14704,12.31563 -0.49267,16.82263 -0.19161,2.49843 -0.55422,4.98288 -0.83132,7.47435 -0.80686,4.02157 -1.06535,7.19318 -3.06768,10.83389 -3.04763,5.54124 -9.26234,7.4652 -14.96028,10.59092 -1.25177,0.6867 -2.58507,1.26136 -3.96422,1.68614 -1.5057,0.4638 -3.09554,0.64339 -4.64332,0.96509 -1.87051,0.12725 -3.73603,0.38077 -5.61153,0.38172 -3.96889,0.002 -9.63812,-0.68586 -13.46322,-1.31598 -8.14185,-1.34123 -16.12818,-3.4245 -23.92177,-5.98051 -2.69089,-1.03841 -5.42273,-1.98914 -8.07272,-3.11526 -5.86879,-2.49392 -10.53055,-4.8591 -15.93248,-8.14869 -4.76121,-2.8994 -9.40186,-6.02169 -13.28783,-9.93525 -1.60793,-1.61935 -2.86495,-3.51322 -4.2974,-5.26983 -2.34131,-4.58558 -3.14201,-5.38053 -4.1601,-10.35179 -1.495,-7.30015 -0.19208,-14.69354 2.85875,-21.48564 0.94381,-1.5613 1.71478,-3.22503 2.83148,-4.68384 2.35283,-3.07367 5.61975,-5.64568 8.78059,-7.93594 6.48593,-4.6995 13.56988,-8.63558 20.18726,-13.16368 6.15866,-4.1135 12.11594,-7.80732 17.4295,-12.88395 1.34929,-1.28914 3.14405,-3.19161 4.23394,-4.82333 0.22386,-0.33512 0.3542,-0.7172 0.53129,-1.0758 0,0 10.79161,-4.8775 10.79161,-4.8775 z"
       inkscape:connector-curvature="0" />
    <path
       style="fill:#001d3e;fill-opacity:1;fill-rule:evenodd;stroke:#000000;stroke-width:9.91699982;stroke-linecap:square;stroke-linejoin:round;stroke-miterlimit:4;stroke-opacity:0.98222219;stroke-dasharray:none"
       id="path6468"
       d="m 451.79557,250.62468 c 1.70477,-7.11405 2.37176,-14.39568 2.92898,-21.65165 0.46918,-7.13082 0.48825,-14.28569 1.0381,-21.41162 0.35472,-3.09419 1.75671,-5.63935 4.68296,-7.25299 3.88161,-2.14045 7.82659,-4.17949 11.73989,-6.26923 3.15327,-1.30022 6.52453,-2.34748 9.98825,-2.59872 2.24178,-0.16261 3.47561,0.0582 5.68959,0.28194 7.12826,0.88534 10.12543,3.75976 14.91345,8.3736 4.63375,4.30183 6.95831,9.97262 9.17855,15.57328 1.6776,4.28926 2.41151,8.78516 2.78746,13.31385 0.32282,3.98508 -0.6797,7.90664 -1.61041,11.76566 -0.41599,1.70971 -0.7435,3.43601 -1.05191,5.16483 0,0 -10.63524,4.8191 -10.63524,4.8191 l 0,0 c 0.40717,-1.79325 0.93452,-3.56002 1.35781,-5.35023 0.95417,-3.75829 1.97724,-7.57853 1.72346,-11.47221 -0.22914,-4.47567 -0.78463,-8.93658 -2.3272,-13.2073 -2.04431,-5.51704 -4.43583,-10.96377 -8.88398,-15.21826 -4.6661,-4.42692 -7.78075,-6.91883 -14.61223,-7.67853 -2.25433,-0.15971 -3.22228,-0.33244 -5.48812,-0.0727 -3.47297,0.3981 -6.82414,1.54875 -9.93674,2.99287 18.81692,-10.3064 6.58048,-4.01114 4.93219,-2.41639 -1.30182,1.25953 -1.91726,2.87361 -2.29309,4.55198 -1.05441,7.22018 -1.38867,14.50726 -1.90195,21.77258 -0.48702,7.02769 -0.89708,14.06177 -1.55067,21.07796 0,0 -10.66915,4.91219 -10.66915,4.91219 z"
       inkscape:connector-curvature="0" />
    <path
       style="fill:#001d3e;fill-opacity:1;fill-rule:evenodd;stroke:#000000;stroke-width:9.91699982;stroke-linecap:square;stroke-linejoin:round;stroke-miterlimit:4;stroke-opacity:0.98222219;stroke-dasharray:none"
       id="path6470"
       d="m 458.82198,253.09663 c -0.0976,-1.1765 -0.42401,-5.26494 -0.55075,-5.79297 -0.58395,-2.43286 -3.16147,-8.52761 -4.00542,-10.62766 -3.08731,-7.68231 -1.76528,-3.97957 -4.20863,-11.92305 -1.52903,-6.53682 -2.66307,-13.35496 -0.41628,-19.87575 1.00373,-2.91311 1.67103,-3.56719 3.36237,-6.0638 0.64446,-0.72916 1.23348,-1.50418 1.93338,-2.18751 3.54193,-3.45804 11.64413,-6.82827 14.417,-7.68832 1.10283,-0.34207 2.21177,0.70177 3.23009,1.22404 2.50321,1.28382 5.13014,3.49831 7.27815,5.15849 5.78565,5.18001 11.99167,10.62398 16.22098,17.05596 0.71371,1.08542 1.27801,2.25031 1.91702,3.37545 3.71878,7.17969 3.73683,15.12898 3.38568,22.91468 -0.19954,3.27244 -0.52371,6.53626 -0.82731,9.80119 0.0961,1.28915 -0.62534,2.41653 -0.73547,3.68645 -0.0328,0.3783 0.0201,0.75884 0.03,1.13826 0.54511,1.31704 1.8252,3.45428 3.6498,3.43526 0.27116,-0.002 0.51485,-0.15894 0.77229,-0.2384 4.76463,-2.46999 0.35599,1.93975 -6.45228,2.8137 -1.26605,0.16251 1.57633,-1.87734 2.30002,-2.85916 1.89985,-2.57747 2.70872,-4.07066 4.34447,-6.79432 2.72267,-4.89187 5.37155,-9.81652 7.72311,-14.87328 1.19534,-2.8086 2.13985,-5.7064 3.12797,-8.58351 2.3283,-6.27108 5.77963,-5.77898 13.57834,-9.80144 5.72515,0.82941 10.74189,4.02033 15.35567,7.09605 0.19906,2.39636 0.60943,4.78558 0.59715,7.18908 -0.0162,3.14698 -1.2384,13.68949 -1.59344,16.8451 -0.72928,6.4816 -1.46509,12.94484 -1.99437,19.44342 -0.34891,5.7275 -0.339,11.45841 -1.51496,17.10556 -0.41606,1.81563 -0.21738,0.94308 -0.59657,2.61754 0,0 -10.55523,4.73641 -10.55523,4.73641 l 0,0 c 0.45952,-1.73184 0.20766,-0.83545 0.76191,-2.68762 1.58914,-5.7478 2.01369,-11.64615 2.73421,-17.52855 0.94479,-6.62115 2.06293,-13.22779 2.90192,-19.86128 0.61071,-4.82871 1.43229,-11.51605 1.14851,-16.41606 -0.11718,-2.02368 -0.69731,-4.00079 -1.04597,-6.00117 -3.83909,-2.40759 -9.49333,-5.85182 -14.31748,-5.92406 -0.4158,-0.007 -0.82016,0.12872 -1.23026,0.19308 3.12457,-1.71058 6.26668,-3.39364 9.3737,-5.13176 0.23155,-0.12953 -0.5085,0.17665 -0.74206,0.30304 -1.22655,0.66389 -1.70227,2.08019 -2.29935,3.1961 -1.06721,2.92264 -1.99877,5.89256 -3.22765,8.75855 -2.66116,5.1353 -5.48537,10.18766 -8.35557,15.22498 -1.66121,2.83863 -2.33585,4.07534 -4.13659,6.8229 -0.62207,0.94914 -1.00476,2.10882 -1.93178,2.80913 -3.61007,2.72723 -7.62429,4.95539 -11.50328,7.34036 -0.5411,0.33269 -1.40289,0.4066 -2.01346,0.5022 -0.34829,-0.0552 -0.71049,-0.0592 -1.04483,-0.16557 -2.09582,-0.66634 -3.46992,-2.77204 -4.23699,-4.55991 -0.11707,-1.69489 0.12749,-3.27257 0.44684,-4.91633 0.59867,-3.37469 1.45705,-6.71397 1.71861,-10.13844 0.68986,-7.65974 0.66599,-15.38784 -3.00109,-22.47431 -0.61902,-1.094 -1.18624,-2.21486 -1.85703,-3.28201 -4.07849,-6.48832 -9.69072,-12.07392 -15.79454,-16.93177 -2.41597,-1.65482 -4.74164,-3.48828 -7.55029,-4.57556 -0.90284,-0.34952 -3.44304,0.0885 -2.85203,-0.63726 1.65119,-2.02784 4.51161,-2.87224 6.81889,-4.23449 1.61816,-0.95539 -6.8907,4.36401 -4.25988,3.5949 -1.84226,2.37837 -2.59135,3.04784 -3.78355,5.87548 -2.68312,6.36376 -1.95951,13.18922 -0.51876,19.73245 1.95804,6.34592 1.56484,5.69607 4.21761,11.80855 0.81663,1.88168 1.7137,3.73218 2.58149,5.59389 0.75649,1.62297 1.6827,3.18389 2.29131,4.86003 0.72137,1.98664 0.50521,4.21727 1.66461,6.09769 0,0 -10.72995,4.42535 -10.72995,4.42535 z"
       inkscape:connector-curvature="0" />
    <path
       sodipodi:type="arc"
       style="fill:#000000;fill-opacity:1;fill-rule:evenodd;stroke:#000000;stroke-width:25.35325241;stroke-linecap:square;stroke-linejoin:round;stroke-miterlimit:4;stroke-opacity:0.98222219;stroke-dasharray:none"
       id="path6494"
       sodipodi:cx="463"
       sodipodi:cy="328"
       sodipodi:rx="79"
       sodipodi:ry="70"
       d="m 542,328 a 79,70 0 1 1 -158,0 79,70 0 1 1 158,0 z"
       transform="matrix(0.40515305,0,0,0.37763665,307.93689,112.94213)" />
    <rect
       style="fill:#bbbbbb;fill-opacity:1;fill-rule:nonzero;stroke:#000000;stroke-width:10;stroke-linecap:round;stroke-linejoin:round;stroke-miterlimit:4;stroke-opacity:1;stroke-dasharray:none"
       id="rect6662"
       width="316.2225"
       height="183.05061"
       x="353.72165"
       y="436.36264"
       ry="43"
       rx="20"
       inkscape:export-xdpi="90"
       inkscape:export-ydpi="90" />
    <path
       sodipodi:type="arc"
       style="fill:#dab89a;fill-opacity:1;fill-rule:evenodd;stroke:#000000;stroke-width:5.24761152;stroke-linecap:round;stroke-linejoin:bevel;stroke-miterlimit:4;stroke-opacity:1;stroke-dasharray:none"
       id="path10247"
       sodipodi:cx="634.62836"
       sodipodi:cy="330.65445"
       sodipodi:rx="22.273863"
       sodipodi:ry="19.445436"
       d="m 654.74034,339.01142 a 22.273863,19.445436 0 1 1 0.15256,-0.28578"
       sodipodi:start="0.44423257"
       sodipodi:end="6.7112036"
       sodipodi:open="true"
       transform="matrix(0.90785541,0,0,1,47.773434,-81.75104)" />
    <path
       transform="matrix(0.90785541,0,0,1,-177.82863,-79.50104)"
       sodipodi:open="true"
       sodipodi:end="6.7112036"
       sodipodi:start="0.44423257"
       d="m 654.74034,339.01142 a 22.273863,19.445436 0 1 1 0.15256,-0.28578"
       sodipodi:ry="19.445436"
       sodipodi:rx="22.273863"
       sodipodi:cy="330.65445"
       sodipodi:cx="634.62836"
       id="path10249"
       style="fill:#dab89a;fill-opacity:1;fill-rule:evenodd;stroke:#000000;stroke-width:5.24761152;stroke-linecap:round;stroke-linejoin:bevel;stroke-miterlimit:4;stroke-opacity:1;stroke-dasharray:none"
       sodipodi:type="arc" />
    <path
       sodipodi:type="star"
       style="fill:#ffffff;fill-opacity:1;stroke:#000000;stroke-width:24.7564045;stroke-linecap:square;stroke-linejoin:round;stroke-miterlimit:4;stroke-dasharray:none;stroke-opacity:1"
       id="path5444"
       sodipodi:sides="5"
       sodipodi:cx="499.39417"
       sodipodi:cy="546.6756"
       sodipodi:r1="45.086723"
       sodipodi:r2="22.543362"
       sodipodi:arg1="0.90768989"
       sodipodi:arg2="1.5360084"
       inkscape:flatsided="false"
       inkscape:rounded="0"
       inkscape:randomized="0"
       d="m 527.14811,582.20772 -26.96987,-13.0024 -26.00069,14.84587 4.03187,-29.66782 -22.15392,-20.1405 29.46169,-5.33333 12.30882,-27.29339 14.17646,26.37165 29.76119,3.27226 -20.70016,21.6319 z"
       inkscape:transform-center-x="0.1972438"
       inkscape:transform-center-y="-1.5400888"
       transform="matrix(0.4070295,0,0,0.40086577,315.63765,301.89578)" />
  </g>
  <g
     id="layer1"
     inkscape:label="Layer 1"
     inkscape:groupmode="layer">
    <path
       sodipodi:type="arc"
       style="fill:#8d521d;fill-opacity:1;stroke:#000000;stroke-width:28.4863178;stroke-linecap:square;stroke-linejoin:round;stroke-miterlimit:4;stroke-opacity:0.98222219;stroke-dasharray:none"
       id="path5879"
       sodipodi:cx="504"
       sodipodi:cy="398"
       sodipodi:rx="288"
       sodipodi:ry="244"
       d="m 792,398 a 288,244 0 1 1 -576,0 288,244 0 1 1 576,0 z"
       transform="matrix(0.40515305,0,0,0.43799661,307.1266,74.191054)" />
    <ellipse
       style="fill:#dab89a;fill-opacity:1;stroke:#000000;stroke-width:32.4688893;stroke-linecap:square;stroke-linejoin:round;stroke-miterlimit:4;stroke-opacity:0.98222219;stroke-dasharray:none"
       id="path6415"
       transform="matrix(0.36167977,-0.02035313,0.01954876,0.37656202,287.33263,83.550424)"
       d="m 854,459 a 257,225 0 1 1 -514,0 257,225 0 1 1 514,0 z"
       sodipodi:type="arc"
       sodipodi:ry="225"
       sodipodi:rx="257"
       sodipodi:cy="459"
       sodipodi:cx="597" />
    <path
       sodipodi:type="arc"
       style="fill:#000000;fill-opacity:1;fill-rule:evenodd;stroke:#000000;stroke-width:41.69377518;stroke-linecap:square;stroke-linejoin:round;stroke-miterlimit:4;stroke-opacity:0.98222219;stroke-dasharray:none"
       id="path6500"
       sodipodi:cx="437"
       sodipodi:cy="305"
       sodipodi:rx="69"
       sodipodi:ry="59"
       d="m 506,305 a 69,59 0 1 1 -138,0 69,59 0 1 1 138,0 z"
       transform="matrix(0.17373882,0,0,0.32562766,384.44044,108.76569)" />
    <path
       sodipodi:type="arc"
       style="fill:#000000;fill-opacity:1;fill-rule:evenodd;stroke:#000000;stroke-width:25.06779671;stroke-linecap:square;stroke-linejoin:round;stroke-miterlimit:4;stroke-opacity:0.98222219;stroke-dasharray:none"
       id="path6528"
       sodipodi:cx="578"
       sodipodi:cy="370"
       sodipodi:rx="36"
       sodipodi:ry="34"
       d="m 614,370 a 36,34 0 1 1 -72,0 36,34 0 1 1 72,0 z"
       transform="matrix(0.38653352,0,0,0.40489376,304.3577,96.079464)" />
    <rect
       style="fill:#000000;fill-opacity:1;fill-rule:evenodd;stroke:#000000;stroke-width:9.91699982;stroke-linecap:square;stroke-linejoin:round;stroke-miterlimit:4;stroke-opacity:0.98222219;stroke-dasharray:none"
       id="rect6530"
       width="4.9751625"
       height="33.369579"
       x="510.17303"
       y="257.80627"
       ry="0.70405281"
       rx="0.70405281" />
    <path
       transform="matrix(0.17373882,0,0,0.32562766,489.91697,108.76569)"
       d="m 506,305 a 69,59 0 1 1 -138,0 69,59 0 1 1 138,0 z"
       sodipodi:ry="59"
       sodipodi:rx="69"
       sodipodi:cy="305"
       sodipodi:cx="437"
       id="path6620"
       style="fill:#000000;fill-opacity:1;fill-rule:evenodd;stroke:#000000;stroke-width:41.69377518;stroke-linecap:square;stroke-linejoin:round;stroke-miterlimit:4;stroke-opacity:0.98222219;stroke-dasharray:none"
       sodipodi:type="arc" />
    <path
       sodipodi:type="arc"
       style="fill:#000000;fill-opacity:1;fill-rule:evenodd;stroke:#000000;stroke-width:25.06779671;stroke-linecap:square;stroke-linejoin:round;stroke-miterlimit:4;stroke-opacity:0.98222219;stroke-dasharray:none"
       id="path6528-9"
       sodipodi:cx="578"
       sodipodi:cy="370"
       sodipodi:rx="36"
       sodipodi:ry="34"
       d="m 614,370 a 36,34 0 1 1 -72,0 36,34 0 1 1 72,0 z"
       transform="matrix(0.38653352,0,0,0.40489376,274.17237,95.366064)" />
    <path
       sodipodi:type="arc"
       style="fill:#9e9e9e;fill-opacity:1;fill-rule:evenodd;stroke:#000000;stroke-width:12.93171006;stroke-linecap:round;stroke-linejoin:round;stroke-miterlimit:4;stroke-opacity:1;stroke-dasharray:none"
       id="path6850"
       sodipodi:cx="362"
       sodipodi:cy="692"
       sodipodi:rx="78"
       sodipodi:ry="104"
       d="m 440,692 a 78,104 0 1 1 -156,0 78,104 0 1 1 156,0 z"
       transform="matrix(0.73089865,0,0,0.81814621,98.15604,36.296589)" />
    <path
       sodipodi:type="arc"
       style="fill:#dab89a;fill-opacity:1;fill-rule:evenodd;stroke:#000000;stroke-width:14.3038187;stroke-linecap:round;stroke-linejoin:round;stroke-miterlimit:4;stroke-opacity:1;stroke-dasharray:none"
       id="path8392"
       sodipodi:cx="514"
       sodipodi:cy="378"
       sodipodi:rx="42"
       sodipodi:ry="11"
       d="m 556,378 a 42,11 0 1 1 -83.92738,-0.64656 L 514,378 z"
       sodipodi:start="0"
       sodipodi:end="3.2004051"
       transform="matrix(0.90785541,0,0,0.5294683,46.255716,87.029044)" />
    <path
       transform="matrix(0.73089865,0,0,0.81814621,404.1565,34.175267)"
       d="m 440,692 a 78,104 0 1 1 -156,0 78,104 0 1 1 156,0 z"
       sodipodi:ry="104"
       sodipodi:rx="78"
       sodipodi:cy="692"
       sodipodi:cx="362"
       id="path10288"
       style="fill:#9e9e9e;fill-opacity:1;fill-rule:evenodd;stroke:#000000;stroke-width:12.93171006;stroke-linecap:round;stroke-linejoin:round;stroke-miterlimit:4;stroke-opacity:1;stroke-dasharray:none"
       sodipodi:type="arc" />
    <path
       sodipodi:type="arc"
       style="fill:#6096b2;fill-opacity:0.36725667;fill-rule:evenodd;stroke:#000000;stroke-width:9;stroke-linecap:round;stroke-linejoin:bevel;stroke-miterlimit:4;stroke-opacity:1;stroke-dasharray:none"
       id="path10317"
       sodipodi:cx="510.5311"
       sodipodi:cy="361.4136"
       sodipodi:rx="13.788582"
       sodipodi:ry="13.435029"
       d="m 522.98137,367.18751 a 13.788582,13.435029 0 1 1 0.0944,-0.19745"
       sodipodi:start="0.44423257"
       sodipodi:end="6.7112036"
       sodipodi:open="true"
       transform="translate(-28.353553,61.535534)" />
    <path
       transform="translate(54.731493,61.181981)"
       sodipodi:open="true"
       sodipodi:end="6.7112036"
       sodipodi:start="0.44423257"
       d="m 522.98137,367.18751 a 13.788582,13.435029 0 1 1 0.0944,-0.19745"
       sodipodi:ry="13.435029"
       sodipodi:rx="13.788582"
       sodipodi:cy="361.4136"
       sodipodi:cx="510.5311"
       id="path10319"
       style="fill:#6096b2;fill-opacity:0.36725667;fill-rule:evenodd;stroke:#000000;stroke-width:9;stroke-linecap:round;stroke-linejoin:bevel;stroke-miterlimit:4;stroke-opacity:1;stroke-dasharray:none"
       sodipodi:type="arc" />
    <path
       style="fill:#e6e6e6;stroke:#000000;stroke-width:0;stroke-linecap:butt;stroke-linejoin:miter;stroke-miterlimit:4;stroke-opacity:1;stroke-dasharray:none"
       d="m 345.32001,571.53464 58.17225,79 c 0,0 21.7855,-20 6.14202,-80"
       id="path3195"
       inkscape:connector-curvature="0" />
    <path
       style="fill:#d6e9f6;fill-opacity:0;stroke:#000000;stroke-width:12;stroke-linecap:square;stroke-linejoin:round;stroke-miterlimit:4;stroke-dasharray:none;stroke-opacity:1"
       class="helmet"
       sodipodi:type="arc"
       sodipodi:cx="510.88324"
       sodipodi:cy="237.3165"
       sodipodi:rx="155.06584"
       sodipodi:ry="123.93731"
       sodipodi:start="0.44423342"
       sodipodi:end="0.42801756"
       sodipodi:open="true"
       d="M 650.89845,290.58052 A 155.06584,123.93731 0 0 1 444.8094,349.43951 155.06584,123.93731 0 0 1 370.33231,184.96156 155.06584,123.93731 0 0 1 575.8175,124.769 155.06584,123.93731 0 0 1 651.96065,288.75891" />
  </g>
  <g
     inkscape:groupmode="layer"
     id="layer10"
     inkscape:label="Layer#2">
    <path
       d="m 440,692 a 78,104 0 1 1 -156,0 78,104 0 1 1 156,0 z"
       sodipodi:ry="104"
       sodipodi:rx="78"
       sodipodi:cy="692"
       sodipodi:cx="362"
       id="path6876"
       style="fill:#9e9e9e;fill-opacity:1;fill-rule:evenodd;stroke:#000000;stroke-width:33.3521461;stroke-linecap:round;stroke-linejoin:round;stroke-miterlimit:4;stroke-opacity:1;stroke-dasharray:none"
       sodipodi:type="arc"
       transform="matrix(0.23395308,0,0,0.38425866,238.78527,275.15957)" />
    <path
       transform="matrix(0.23395308,0,0,0.38425866,264.62644,275.15957)"
       sodipodi:type="arc"
       style="fill:#9e9e9e;fill-opacity:1;fill-rule:evenodd;stroke:#000000;stroke-width:33.3521461;stroke-linecap:round;stroke-linejoin:round;stroke-miterlimit:4;stroke-opacity:1;stroke-dasharray:none"
       id="path6878"
       sodipodi:cx="362"
       sodipodi:cy="692"
       sodipodi:rx="78"
       sodipodi:ry="104"
       d="m 440,692 a 78,104 0 1 1 -156,0 78,104 0 1 1 156,0 z" />
    <path
       d="m 440,692 a 78,104 0 1 1 -156,0 78,104 0 1 1 156,0 z"
       sodipodi:ry="104"
       sodipodi:rx="78"
       sodipodi:cy="692"
       sodipodi:cx="362"
       id="path6880"
       style="fill:#9e9e9e;fill-opacity:1;fill-rule:evenodd;stroke:#000000;stroke-width:33.3521461;stroke-linecap:round;stroke-linejoin:round;stroke-miterlimit:4;stroke-opacity:1;stroke-dasharray:none"
       sodipodi:type="arc"
       transform="matrix(0.23395308,0,0,0.38425866,291.50125,275.15957)" />
    <path
       transform="matrix(0.23395308,0,0,0.38425866,322.51066,276.3166)"
       sodipodi:type="arc"
       style="fill:#9e9e9e;fill-opacity:1;fill-rule:evenodd;stroke:#000000;stroke-width:33.3521461;stroke-linecap:round;stroke-linejoin:round;stroke-miterlimit:4;stroke-opacity:1;stroke-dasharray:none"
       id="path6882"
       sodipodi:cx="362"
       sodipodi:cy="692"
       sodipodi:rx="78"
       sodipodi:ry="104"
       d="m 440,692 a 78,104 0 1 1 -156,0 78,104 0 1 1 156,0 z" />
    <path
       transform="matrix(0.23395308,0,0,0.38425866,544.2554,276.57378)"
       sodipodi:type="arc"
       style="fill:#9e9e9e;fill-opacity:1;fill-rule:evenodd;stroke:#000000;stroke-width:33.3521461;stroke-linecap:round;stroke-linejoin:round;stroke-miterlimit:4;stroke-opacity:1;stroke-dasharray:none"
       id="path10290"
       sodipodi:cx="362"
       sodipodi:cy="692"
       sodipodi:rx="78"
       sodipodi:ry="104"
       d="m 440,692 a 78,104 0 1 1 -156,0 78,104 0 1 1 156,0 z" />
    <path
       d="m 440,692 a 78,104 0 1 1 -156,0 78,104 0 1 1 156,0 z"
       sodipodi:ry="104"
       sodipodi:rx="78"
       sodipodi:cy="692"
       sodipodi:cx="362"
       id="path10292"
       style="fill:#9e9e9e;fill-opacity:1;fill-rule:evenodd;stroke:#000000;stroke-width:33.3521461;stroke-linecap:round;stroke-linejoin:round;stroke-miterlimit:4;stroke-opacity:1;stroke-dasharray:none"
       sodipodi:type="arc"
       transform="matrix(0.23395308,0,0,0.38425866,570.09657,276.57378)" />
    <path
       transform="matrix(0.23395308,0,0,0.38425866,596.97138,276.57378)"
       sodipodi:type="arc"
       style="fill:#9e9e9e;fill-opacity:1;fill-rule:evenodd;stroke:#000000;stroke-width:33.3521461;stroke-linecap:round;stroke-linejoin:round;stroke-miterlimit:4;stroke-opacity:1;stroke-dasharray:none"
       id="path10294"
       sodipodi:cx="362"
       sodipodi:cy="692"
       sodipodi:rx="78"
       sodipodi:ry="104"
       d="m 440,692 a 78,104 0 1 1 -156,0 78,104 0 1 1 156,0 z" />
    <path
       d="m 440,692 a 78,104 0 1 1 -156,0 78,104 0 1 1 156,0 z"
       sodipodi:ry="104"
       sodipodi:rx="78"
       sodipodi:cy="692"
       sodipodi:cx="362"
       id="path10296"
       style="fill:#9e9e9e;fill-opacity:1;fill-rule:evenodd;stroke:#000000;stroke-width:33.07532501;stroke-linecap:round;stroke-linejoin:round;stroke-miterlimit:4;stroke-opacity:1;stroke-dasharray:none"
       sodipodi:type="arc"
       transform="matrix(0.23395308,0,0,0.38425866,627.98079,277.73081)" />
  </g>
</svg>
